{"glyphs":{"0":{"ha":822,"x_min":0,"x_max":0,"o":"m 411 -18 b 83 304 253 -18 83 88 l 83 668 b 411 990 83 885 253 990 b 739 668 569 990 739 885 l 739 304 b 411 -18 739 88 569 -18 m 194 311 b 411 89 194 168 293 89 b 628 311 529 89 628 168 l 628 661 b 411 883 628 803 528 883 b 194 661 294 883 194 803 l 194 311 "},"1":{"ha":571,"x_min":0,"x_max":0,"o":"m 333 942 b 69 660 333 707 182 660 l 69 764 b 325 951 181 764 325 824 l 325 972 l 446 972 l 446 0 l 333 0 l 333 942 "},"2":{"ha":804,"x_min":0,"x_max":0,"o":"m 85 215 l 471 486 b 594 686 558 547 594 608 b 390 883 594 785 525 883 b 188 701 278 883 201 801 l 83 751 b 390 990 106 878 224 990 b 711 686 594 990 711 844 b 535 400 711 571 656 482 l 108 108 l 721 108 l 721 0 l 85 0 "},"3":{"ha":824,"x_min":0,"x_max":0,"o":"m 406 -17 b 83 190 236 -17 125 82 l 178 240 b 406 88 208 158 297 88 b 625 288 540 88 625 174 b 406 467 625 375 553 467 l 336 467 l 336 572 l 406 572 b 596 729 532 572 596 656 b 411 885 596 807 529 885 b 203 703 290 885 221 801 l 107 751 b 411 990 132 878 240 990 b 704 764 597 990 704 875 b 475 564 704 653 618 565 b 740 288 631 546 740 428 b 406 -17 740 131 635 -17 "},"4":{"ha":822,"x_min":0,"x_max":0,"o":"m 518 208 l 69 208 l 69 467 l 390 972 l 524 972 l 93 319 l 518 319 l 518 533 l 629 533 l 629 319 l 767 319 l 767 208 l 629 208 l 629 0 l 518 0 "},"5":{"ha":818,"x_min":0,"x_max":0,"o":"m 396 -17 b 83 192 224 -17 119 89 l 178 240 b 396 89 199 175 274 89 b 621 317 511 89 621 168 b 386 539 621 433 525 539 b 193 432 274 539 211 467 l 90 476 l 124 972 l 669 972 l 669 869 l 221 869 l 190 449 b 438 631 219 550 306 631 b 735 317 604 631 735 490 b 396 -17 735 118 582 -17 "},"6":{"ha":838,"x_min":0,"x_max":0,"o":"m 418 -18 b 83 314 228 -18 83 119 b 161 532 83 399 126 475 l 425 972 l 554 972 l 249 481 b 464 610 310 578 392 610 b 754 314 631 610 754 475 b 418 -18 754 122 614 -18 m 192 314 b 418 86 192 186 292 86 b 642 314 542 86 642 186 b 417 538 642 433 553 538 b 192 314 285 538 192 433 "},"7":{"ha":794,"x_min":0,"x_max":0,"o":"m 689 864 l 194 864 l 194 757 l 83 757 l 83 972 l 711 972 l 711 676 l 356 0 l 226 0 "},"8":{"ha":833,"x_min":0,"x_max":0,"o":"m 422 -18 b 83 249 239 -18 83 85 b 381 488 83 422 238 508 l 322 511 b 142 742 224 550 142 622 b 417 990 142 885 260 990 b 696 754 582 990 696 885 b 435 576 696 646 585 539 l 531 538 b 750 271 660 485 750 399 b 422 -18 750 101 626 -18 m 197 274 b 422 83 197 157 304 83 b 635 271 551 83 635 165 b 472 451 635 342 588 406 l 413 475 b 197 274 311 467 197 401 m 254 742 b 385 597 254 668 311 628 l 426 581 l 424 582 b 581 744 514 597 581 663 b 417 888 581 817 522 888 b 254 742 322 888 254 824 "},"9":{"ha":838,"x_min":0,"x_max":0,"o":"m 589 492 b 374 363 528 394 456 363 b 83 658 207 363 83 497 b 419 990 83 850 224 990 b 754 658 610 990 754 853 b 676 440 754 574 711 497 l 413 0 l 283 0 l 589 492 m 196 658 b 421 435 196 539 279 435 b 646 658 553 435 646 539 b 419 886 646 786 546 886 b 196 658 293 886 196 793 "},"\u0000":{"ha":0,"x_min":0,"x_max":0,"o":""},"\r":{"ha":0,"x_min":0,"x_max":0,"o":""}," ":{"ha":393,"x_min":0,"x_max":0,"o":""}," ":{"ha":393,"x_min":0,"x_max":0,"o":""},"A":{"ha":919,"x_min":0,"x_max":0,"o":"m 354 972 l 567 972 l 899 0 l 782 0 l 704 228 l 215 228 l 138 0 l 21 0 m 669 333 l 460 950 l 250 333 "},"Á":{"ha":919,"x_min":0,"x_max":0,"o":"m 354 972 l 567 972 l 899 0 l 782 0 l 704 228 l 215 228 l 138 0 l 21 0 m 669 333 l 460 950 l 250 333 m 479 1240 l 603 1240 l 497 1035 l 410 1035 "},"Ă":{"ha":919,"x_min":0,"x_max":0,"o":"m 354 972 l 567 972 l 899 0 l 782 0 l 704 228 l 215 228 l 138 0 l 21 0 m 669 333 l 460 950 l 250 333 m 283 1236 l 375 1236 l 375 1224 b 467 1136 375 1175 406 1136 b 558 1224 526 1136 558 1176 l 558 1236 l 650 1236 l 650 1224 b 467 1047 650 1119 579 1047 b 283 1224 354 1047 283 1119 "},"Ǎ":{"ha":919,"x_min":0,"x_max":0,"o":"m 354 972 l 567 972 l 899 0 l 782 0 l 704 228 l 215 228 l 138 0 l 21 0 m 669 333 l 460 950 l 250 333 m 381 1242 l 467 1058 l 551 1242 l 656 1242 l 561 1036 l 372 1036 l 278 1242 "},"Â":{"ha":919,"x_min":0,"x_max":0,"o":"m 354 972 l 567 972 l 899 0 l 782 0 l 704 228 l 215 228 l 138 0 l 21 0 m 669 333 l 460 950 l 250 333 m 371 1240 l 560 1240 l 654 1035 l 551 1035 l 465 1218 l 381 1035 l 276 1035 "},"Ä":{"ha":919,"x_min":0,"x_max":0,"o":"m 354 972 l 567 972 l 899 0 l 782 0 l 704 228 l 215 228 l 138 0 l 21 0 m 669 333 l 460 950 l 250 333 m 285 1226 l 410 1226 l 410 1090 l 285 1090 m 515 1226 l 640 1226 l 640 1090 l 515 1090 "},"À":{"ha":919,"x_min":0,"x_max":0,"o":"m 354 972 l 567 972 l 899 0 l 782 0 l 704 228 l 215 228 l 138 0 l 21 0 m 669 333 l 460 950 l 250 333 m 458 1240 l 528 1035 l 440 1035 l 335 1240 "},"Ā":{"ha":919,"x_min":0,"x_max":0,"o":"m 354 972 l 567 972 l 899 0 l 782 0 l 704 228 l 215 228 l 138 0 l 21 0 m 669 333 l 460 950 l 250 333 m 299 1183 l 635 1183 l 635 1083 l 299 1083 "},"Ą":{"ha":919,"x_min":0,"x_max":0,"o":"m 354 972 l 567 972 l 899 0 l 807 -114 b 790 -153 796 -126 790 -140 b 838 -199 790 -179 810 -199 b 876 -190 853 -199 864 -196 l 899 -267 b 817 -285 879 -278 847 -285 b 692 -168 751 -285 692 -243 b 728 -75 692 -131 703 -107 l 788 0 l 782 0 l 704 228 l 215 228 l 138 0 l 21 0 m 669 333 l 460 950 l 250 333 "},"Å":{"ha":919,"x_min":0,"x_max":0,"o":"m 354 972 l 567 972 l 899 0 l 782 0 l 704 228 l 215 228 l 138 0 l 21 0 m 669 333 l 460 950 l 250 333 m 325 1158 b 465 1296 325 1238 385 1296 b 608 1160 550 1296 608 1238 b 467 1021 608 1081 549 1021 b 325 1158 385 1021 325 1081 m 404 1158 b 467 1094 404 1124 429 1094 b 529 1160 504 1094 529 1124 b 465 1222 529 1193 504 1222 b 404 1158 429 1222 404 1193 "},"Ã":{"ha":919,"x_min":0,"x_max":0,"o":"m 354 972 l 567 972 l 899 0 l 782 0 l 704 228 l 215 228 l 138 0 l 21 0 m 250 1083 b 371 1210 253 1158 300 1210 b 458 1181 406 1210 435 1194 l 493 1160 b 542 1140 510 1150 526 1140 b 593 1201 572 1140 593 1163 l 593 1210 l 672 1175 b 551 1049 669 1100 622 1049 b 465 1078 517 1049 492 1061 l 432 1099 b 381 1118 417 1108 401 1118 b 329 1054 350 1118 329 1093 l 329 1046 l 250 1083 m 669 333 l 460 950 l 250 333 "},"Æ":{"ha":1256,"x_min":0,"x_max":0,"o":"m 1164 869 l 599 869 l 711 546 l 1117 546 l 1117 444 l 746 444 l 864 101 l 1179 101 l 1179 0 l 782 0 l 704 228 l 215 228 l 138 0 l 21 0 l 357 972 l 1164 972 m 669 333 l 460 950 l 250 333 "},"B":{"ha":878,"x_min":0,"x_max":0,"o":"m 132 972 l 481 972 b 768 747 664 972 768 869 b 531 550 768 640 701 550 b 801 286 682 550 801 446 b 501 0 801 118 665 0 l 132 0 m 493 101 b 685 286 603 101 685 179 b 493 456 685 393 604 456 l 244 456 l 244 101 m 483 553 b 653 722 589 553 653 625 b 483 871 653 813 582 871 l 244 871 l 244 553 "},"C":{"ha":1074,"x_min":0,"x_max":0,"o":"m 561 -18 b 69 486 269 -18 69 197 b 561 990 69 772 275 990 b 988 721 771 990 922 874 l 892 668 b 561 885 849 785 726 885 b 185 486 340 885 185 715 b 561 88 185 254 340 88 b 904 343 717 88 860 182 l 1004 292 b 561 -18 943 111 774 -18 "},"Ć":{"ha":1074,"x_min":0,"x_max":0,"o":"m 561 -18 b 69 486 269 -18 69 197 b 561 990 69 772 275 990 b 988 721 771 990 922 874 l 892 668 b 561 885 849 785 726 885 b 185 486 340 885 185 715 b 561 88 185 254 340 88 b 904 343 717 88 860 182 l 1004 292 b 561 -18 943 111 774 -18 m 569 1240 l 693 1240 l 588 1035 l 500 1035 "},"Č":{"ha":1074,"x_min":0,"x_max":0,"o":"m 561 -18 b 69 486 269 -18 69 197 b 561 990 69 772 275 990 b 988 721 771 990 922 874 l 892 668 b 561 885 849 785 726 885 b 185 486 340 885 185 715 b 561 88 185 254 340 88 b 904 343 717 88 860 182 l 1004 292 b 561 -18 943 111 774 -18 m 471 1242 l 557 1058 l 642 1242 l 746 1242 l 651 1036 l 463 1036 l 368 1242 "},"Ç":{"ha":1074,"x_min":0,"x_max":0,"o":"m 578 -285 b 479 -229 535 -285 499 -265 l 536 -190 b 578 -215 544 -207 561 -215 b 625 -167 603 -215 625 -197 b 578 -121 625 -139 603 -121 b 536 -144 560 -121 544 -131 l 474 -103 l 501 -15 b 69 486 242 13 69 218 b 561 990 69 772 275 990 b 988 721 771 990 922 874 l 892 668 b 561 885 849 785 726 885 b 185 486 340 885 185 715 b 561 88 185 254 340 88 b 904 343 717 88 860 182 l 1004 292 b 576 -18 944 115 782 -12 l 539 -128 b 611 -71 554 -83 585 -71 b 700 -169 660 -71 700 -114 b 578 -285 700 -235 651 -285 "},"Ĉ":{"ha":1074,"x_min":0,"x_max":0,"o":"m 561 -18 b 69 486 269 -18 69 197 b 561 990 69 772 275 990 b 988 721 771 990 922 874 l 892 668 b 561 885 849 785 726 885 b 185 486 340 885 185 715 b 561 88 185 254 340 88 b 904 343 717 88 860 182 l 1004 292 b 561 -18 943 111 774 -18 m 461 1240 l 650 1240 l 744 1035 l 642 1035 l 556 1218 l 471 1035 l 367 1035 "},"Ċ":{"ha":1074,"x_min":0,"x_max":0,"o":"m 561 -18 b 69 486 269 -18 69 197 b 561 990 69 772 275 990 b 988 721 771 990 922 874 l 892 668 b 561 885 849 785 726 885 b 185 486 340 885 185 715 b 561 88 185 254 340 88 b 904 343 717 88 860 182 l 1004 292 b 561 -18 943 111 774 -18 m 501 1226 l 618 1226 l 618 1083 l 501 1083 "},"D":{"ha":985,"x_min":0,"x_max":0,"o":"m 132 972 l 414 972 b 915 486 722 972 915 763 b 414 0 915 190 722 0 l 132 0 m 407 103 b 799 486 656 103 799 247 b 407 869 799 715 656 869 l 246 869 l 246 103 "},"Ð":{"ha":989,"x_min":0,"x_max":0,"o":"m 42 542 l 136 542 l 136 972 l 418 972 b 919 486 726 972 919 763 b 418 0 919 190 726 0 l 136 0 l 136 442 l 42 442 m 411 103 b 803 486 660 103 803 247 b 411 869 803 715 660 869 l 250 869 l 250 542 l 533 542 l 533 442 l 250 442 l 250 103 "},"Ď":{"ha":985,"x_min":0,"x_max":0,"o":"m 132 972 l 414 972 b 915 486 722 972 915 763 b 414 0 915 190 722 0 l 132 0 m 407 103 b 799 486 656 103 799 247 b 407 869 799 715 656 869 l 246 869 l 246 103 m 381 1243 l 467 1060 l 551 1243 l 656 1243 l 561 1038 l 372 1038 l 278 1243 "},"Đ":{"ha":989,"x_min":0,"x_max":0,"o":"m 42 542 l 136 542 l 136 972 l 418 972 b 919 486 726 972 919 763 b 418 0 919 190 726 0 l 136 0 l 136 442 l 42 442 m 411 103 b 803 486 660 103 803 247 b 411 869 803 715 660 869 l 250 869 l 250 542 l 533 542 l 533 442 l 250 442 l 250 103 "},"E":{"ha":792,"x_min":0,"x_max":0,"o":"m 132 972 l 700 972 l 700 869 l 244 869 l 244 546 l 653 546 l 653 444 l 244 444 l 244 101 l 715 101 l 715 0 l 132 0 "},"É":{"ha":792,"x_min":0,"x_max":0,"o":"m 132 972 l 700 972 l 700 869 l 244 869 l 244 546 l 653 546 l 653 444 l 244 444 l 244 101 l 715 101 l 715 0 l 132 0 m 449 1240 l 572 1240 l 467 1035 l 379 1035 "},"Ĕ":{"ha":792,"x_min":0,"x_max":0,"o":"m 132 972 l 700 972 l 700 869 l 244 869 l 244 546 l 653 546 l 653 444 l 244 444 l 244 101 l 715 101 l 715 0 l 132 0 m 253 1236 l 344 1236 l 344 1224 b 436 1136 344 1175 375 1136 b 528 1224 496 1136 528 1176 l 528 1236 l 619 1236 l 619 1224 b 436 1047 619 1119 549 1047 b 253 1224 324 1047 253 1119 "},"Ě":{"ha":792,"x_min":0,"x_max":0,"o":"m 132 972 l 700 972 l 700 869 l 244 869 l 244 546 l 653 546 l 653 444 l 244 444 l 244 101 l 715 101 l 715 0 l 132 0 m 350 1242 l 436 1058 l 521 1242 l 625 1242 l 531 1036 l 342 1036 l 247 1242 "},"Ê":{"ha":792,"x_min":0,"x_max":0,"o":"m 132 972 l 700 972 l 700 869 l 244 869 l 244 546 l 653 546 l 653 444 l 244 444 l 244 101 l 715 101 l 715 0 l 132 0 m 340 1240 l 529 1240 l 624 1035 l 521 1035 l 435 1218 l 350 1035 l 246 1035 "},"Ë":{"ha":792,"x_min":0,"x_max":0,"o":"m 132 972 l 700 972 l 700 869 l 244 869 l 244 546 l 653 546 l 653 444 l 244 444 l 244 101 l 715 101 l 715 0 l 132 0 m 254 1226 l 379 1226 l 379 1090 l 254 1090 m 485 1226 l 610 1226 l 610 1090 l 485 1090 "},"Ė":{"ha":792,"x_min":0,"x_max":0,"o":"m 132 972 l 700 972 l 700 869 l 244 869 l 244 546 l 653 546 l 653 444 l 244 444 l 244 101 l 715 101 l 715 0 l 132 0 m 381 1226 l 497 1226 l 497 1083 l 381 1083 "},"È":{"ha":792,"x_min":0,"x_max":0,"o":"m 132 972 l 700 972 l 700 869 l 244 869 l 244 546 l 653 546 l 653 444 l 244 444 l 244 101 l 715 101 l 715 0 l 132 0 m 428 1240 l 497 1035 l 410 1035 l 304 1240 "},"Ē":{"ha":792,"x_min":0,"x_max":0,"o":"m 132 972 l 700 972 l 700 869 l 244 869 l 244 546 l 653 546 l 653 444 l 244 444 l 244 101 l 715 101 l 715 0 l 132 0 m 268 1183 l 604 1183 l 604 1083 l 268 1083 "},"Ę":{"ha":792,"x_min":0,"x_max":0,"o":"m 132 972 l 700 972 l 700 869 l 244 869 l 244 546 l 653 546 l 653 444 l 244 444 l 244 101 l 715 101 l 715 0 l 624 -114 b 607 -153 613 -126 607 -140 b 654 -199 607 -179 626 -199 b 693 -190 669 -199 681 -196 l 715 -267 b 633 -285 696 -278 664 -285 b 508 -168 568 -285 508 -243 b 544 -75 508 -131 519 -107 l 604 0 l 132 0 "},"Ẽ":{"ha":792,"x_min":0,"x_max":0,"o":"m 132 972 l 700 972 l 700 869 l 244 869 l 244 546 l 653 546 l 653 444 l 244 444 l 244 101 l 715 101 l 715 0 l 132 0 m 219 1083 b 340 1210 222 1158 269 1210 b 428 1181 375 1210 404 1194 l 463 1160 b 511 1140 479 1150 496 1140 b 563 1201 542 1140 563 1163 l 563 1210 l 642 1175 b 521 1049 639 1100 592 1049 b 435 1078 486 1049 461 1061 l 401 1099 b 350 1118 386 1108 371 1118 b 299 1054 319 1118 299 1093 l 299 1046 l 219 1083 "},"F":{"ha":763,"x_min":0,"x_max":0,"o":"m 132 972 l 700 972 l 700 869 l 244 869 l 244 536 l 653 536 l 653 435 l 244 435 l 244 0 l 132 0 "},"G":{"ha":1119,"x_min":0,"x_max":0,"o":"m 531 -18 b 69 486 269 -18 69 197 b 560 990 69 772 282 990 b 979 750 764 990 911 883 l 883 694 b 560 883 838 789 728 883 b 186 486 342 883 186 714 b 557 88 186 256 333 88 b 911 418 757 88 911 243 l 911 422 l 567 422 l 567 526 l 1022 526 l 1022 0 l 911 0 l 911 353 b 531 -18 911 101 749 -18 "},"Ğ":{"ha":1119,"x_min":0,"x_max":0,"o":"m 531 -18 b 69 486 269 -18 69 197 b 560 990 69 772 282 990 b 979 750 764 990 911 883 l 883 694 b 560 883 838 789 728 883 b 186 486 342 883 186 714 b 557 88 186 256 333 88 b 911 418 757 88 911 243 l 911 422 l 567 422 l 567 526 l 1022 526 l 1022 0 l 911 0 l 911 353 b 531 -18 911 101 749 -18 m 390 1236 l 482 1236 l 482 1224 b 574 1136 482 1175 513 1136 b 665 1224 633 1136 665 1176 l 665 1236 l 757 1236 l 757 1224 b 574 1047 757 1119 686 1047 b 390 1224 461 1047 390 1119 "},"Ǧ":{"ha":1119,"x_min":0,"x_max":0,"o":"m 531 -18 b 69 486 269 -18 69 197 b 560 990 69 772 282 990 b 979 750 764 990 911 883 l 883 694 b 560 883 838 789 728 883 b 186 486 342 883 186 714 b 557 88 186 256 333 88 b 911 418 757 88 911 243 l 911 422 l 567 422 l 567 526 l 1022 526 l 1022 0 l 911 0 l 911 353 b 531 -18 911 101 749 -18 m 488 1242 l 574 1058 l 658 1242 l 763 1242 l 668 1036 l 479 1036 l 385 1242 "},"Ĝ":{"ha":1119,"x_min":0,"x_max":0,"o":"m 531 -18 b 69 486 269 -18 69 197 b 560 990 69 772 282 990 b 979 750 764 990 911 883 l 883 694 b 560 883 838 789 728 883 b 186 486 342 883 186 714 b 557 88 186 256 333 88 b 911 418 757 88 911 243 l 911 422 l 567 422 l 567 526 l 1022 526 l 1022 0 l 911 0 l 911 353 b 531 -18 911 101 749 -18 m 478 1240 l 667 1240 l 761 1035 l 658 1035 l 572 1218 l 488 1035 l 383 1035 "},"Ģ":{"ha":1119,"x_min":0,"x_max":0,"o":"m 531 -18 b 69 486 269 -18 69 197 b 560 990 69 772 282 990 b 979 750 764 990 911 883 l 883 694 b 560 883 838 789 728 883 b 186 486 342 883 186 714 b 557 88 186 256 333 88 b 911 418 757 88 911 243 l 911 422 l 567 422 l 567 526 l 1022 526 l 1022 0 l 911 0 l 911 353 b 531 -18 911 101 749 -18 m 496 -267 b 560 -192 532 -257 560 -240 l 560 -187 l 513 -187 l 513 -62 l 638 -62 l 638 -187 b 515 -333 638 -268 586 -318 l 496 -267 "},"Ġ":{"ha":1119,"x_min":0,"x_max":0,"o":"m 531 -18 b 69 486 269 -18 69 197 b 560 990 69 772 282 990 b 979 750 764 990 911 883 l 883 694 b 560 883 838 789 728 883 b 186 486 342 883 186 714 b 557 88 186 256 333 88 b 911 418 757 88 911 243 l 911 422 l 567 422 l 567 526 l 1022 526 l 1022 0 l 911 0 l 911 353 b 531 -18 911 101 749 -18 m 518 1226 l 635 1226 l 635 1083 l 518 1083 "},"H":{"ha":1006,"x_min":0,"x_max":0,"o":"m 760 440 l 246 440 l 246 0 l 132 0 l 132 972 l 246 972 l 246 549 l 760 549 l 760 972 l 874 972 l 874 0 l 760 0 "},"Ħ":{"ha":1056,"x_min":0,"x_max":0,"o":"m 83 828 l 157 828 l 157 972 l 271 972 l 271 828 l 785 828 l 785 972 l 899 972 l 899 828 l 972 828 l 972 728 l 899 728 l 899 0 l 785 0 l 785 440 l 271 440 l 271 0 l 157 0 l 157 728 l 83 728 m 785 549 l 785 728 l 271 728 l 271 549 "},"Ĥ":{"ha":1006,"x_min":0,"x_max":0,"o":"m 760 440 l 246 440 l 246 0 l 132 0 l 132 972 l 246 972 l 246 549 l 760 549 l 760 972 l 874 972 l 874 0 l 760 0 m 413 1240 l 601 1240 l 696 1035 l 593 1035 l 507 1218 l 422 1035 l 318 1035 "},"I":{"ha":679,"x_min":0,"x_max":0,"o":"m 97 103 l 283 103 l 283 869 l 97 869 l 97 972 l 582 972 l 582 869 l 396 869 l 396 103 l 582 103 l 582 0 l 97 0 "},"Ĳ":{"ha":1482,"x_min":0,"x_max":0,"o":"m 97 103 l 283 103 l 283 869 l 97 869 l 97 972 l 582 972 l 582 869 l 396 869 l 396 103 l 582 103 l 582 0 l 97 0 m 818 254 b 1039 88 854 142 947 88 b 1265 303 1192 88 1265 194 l 1265 869 l 890 869 l 890 972 l 1378 972 l 1378 303 b 1039 -18 1378 133 1261 -18 b 728 196 872 -18 765 86 "},"Í":{"ha":679,"x_min":0,"x_max":0,"o":"m 97 103 l 283 103 l 283 869 l 97 869 l 97 972 l 582 972 l 582 869 l 396 869 l 396 103 l 582 103 l 582 0 l 97 0 m 358 1240 l 482 1240 l 376 1035 l 289 1035 "},"Ĭ":{"ha":679,"x_min":0,"x_max":0,"o":"m 97 103 l 283 103 l 283 869 l 97 869 l 97 972 l 582 972 l 582 869 l 396 869 l 396 103 l 582 103 l 582 0 l 97 0 m 163 1236 l 254 1236 l 254 1224 b 346 1136 254 1175 285 1136 b 438 1224 406 1136 438 1176 l 438 1236 l 529 1236 l 529 1224 b 346 1047 529 1119 458 1047 b 163 1224 233 1047 163 1119 "},"Ǐ":{"ha":679,"x_min":0,"x_max":0,"o":"m 97 103 l 283 103 l 283 869 l 97 869 l 97 972 l 582 972 l 582 869 l 396 869 l 396 103 l 582 103 l 582 0 l 97 0 m 260 1242 l 346 1058 l 431 1242 l 535 1242 l 440 1036 l 251 1036 l 157 1242 "},"Î":{"ha":679,"x_min":0,"x_max":0,"o":"m 97 103 l 283 103 l 283 869 l 97 869 l 97 972 l 582 972 l 582 869 l 396 869 l 396 103 l 582 103 l 582 0 l 97 0 m 250 1240 l 439 1240 l 533 1035 l 431 1035 l 344 1218 l 260 1035 l 156 1035 "},"Ï":{"ha":679,"x_min":0,"x_max":0,"o":"m 97 103 l 283 103 l 283 869 l 97 869 l 97 972 l 582 972 l 582 869 l 396 869 l 396 103 l 582 103 l 582 0 l 97 0 m 164 1226 l 289 1226 l 289 1090 l 164 1090 m 394 1226 l 519 1226 l 519 1090 l 394 1090 "},"İ":{"ha":679,"x_min":0,"x_max":0,"o":"m 97 103 l 283 103 l 283 869 l 97 869 l 97 972 l 582 972 l 582 869 l 396 869 l 396 103 l 582 103 l 582 0 l 97 0 m 290 1226 l 407 1226 l 407 1083 l 290 1083 "},"Ì":{"ha":679,"x_min":0,"x_max":0,"o":"m 97 103 l 283 103 l 283 869 l 97 869 l 97 972 l 582 972 l 582 869 l 396 869 l 396 103 l 582 103 l 582 0 l 97 0 m 338 1240 l 407 1035 l 319 1035 l 214 1240 "},"Ī":{"ha":679,"x_min":0,"x_max":0,"o":"m 97 103 l 283 103 l 283 869 l 97 869 l 97 972 l 582 972 l 582 869 l 396 869 l 396 103 l 582 103 l 582 0 l 97 0 m 178 1183 l 514 1183 l 514 1083 l 178 1083 "},"Į":{"ha":679,"x_min":0,"x_max":0,"o":"m 97 103 l 283 103 l 283 869 l 97 869 l 97 972 l 582 972 l 582 869 l 396 869 l 396 103 l 582 103 l 582 0 l 490 -114 b 474 -153 479 -126 474 -140 b 521 -199 474 -179 493 -199 b 560 -190 536 -199 547 -196 l 582 -267 b 500 -285 563 -278 531 -285 b 375 -168 435 -285 375 -243 b 411 -75 375 -131 386 -107 l 471 0 l 97 0 "},"Ĩ":{"ha":679,"x_min":0,"x_max":0,"o":"m 97 103 l 283 103 l 283 869 l 97 869 l 97 972 l 582 972 l 582 869 l 396 869 l 396 103 l 582 103 l 582 0 l 97 0 m 129 1083 b 250 1210 132 1158 179 1210 b 338 1181 285 1210 314 1194 l 372 1160 b 421 1140 389 1150 406 1140 b 472 1201 451 1140 472 1163 l 472 1210 l 551 1175 b 431 1049 549 1100 501 1049 b 344 1078 396 1049 371 1061 l 311 1099 b 260 1118 296 1108 281 1118 b 208 1054 229 1118 208 1093 l 208 1046 l 129 1083 "},"J":{"ha":803,"x_min":0,"x_max":0,"o":"m 360 -18 b 49 196 193 -18 86 86 l 139 254 b 360 88 175 142 268 88 b 586 303 513 88 586 194 l 586 869 l 211 869 l 211 972 l 699 972 l 699 303 b 360 -18 699 133 582 -18 "},"Ĵ":{"ha":803,"x_min":0,"x_max":0,"o":"m 360 -18 b 49 196 193 -18 86 86 l 139 254 b 360 88 175 142 268 88 b 586 303 513 88 586 194 l 586 869 l 211 869 l 211 972 l 699 972 l 699 303 b 360 -18 699 133 582 -18 m 371 1240 l 560 1240 l 654 1035 l 551 1035 l 465 1218 l 381 1035 l 276 1035 "},"K":{"ha":886,"x_min":0,"x_max":0,"o":"m 132 972 l 246 972 l 246 196 b 425 676 246 413 274 513 l 697 972 l 843 972 l 485 586 l 858 0 l 722 0 l 406 496 b 246 0 249 306 246 204 l 132 0 "},"Ķ":{"ha":886,"x_min":0,"x_max":0,"o":"m 132 972 l 246 972 l 246 196 b 425 676 246 413 274 513 l 697 972 l 843 972 l 485 586 l 858 0 l 722 0 l 406 496 b 246 0 249 306 246 204 l 132 0 m 406 -267 b 469 -192 442 -257 469 -240 l 469 -187 l 422 -187 l 422 -62 l 547 -62 l 547 -187 b 425 -333 547 -268 496 -318 l 406 -267 "},"L":{"ha":754,"x_min":0,"x_max":0,"o":"m 132 972 l 246 972 l 246 106 l 706 106 l 706 0 l 132 0 "},"Ĺ":{"ha":754,"x_min":0,"x_max":0,"o":"m 132 972 l 246 972 l 246 106 l 706 106 l 706 0 l 132 0 m 210 1240 l 333 1240 l 228 1035 l 140 1035 "},"Ľ":{"ha":803,"x_min":0,"x_max":0,"o":"m 132 972 l 246 972 l 246 106 l 706 106 l 706 0 l 132 0 m 519 972 l 622 972 l 589 721 l 497 721 "},"Ļ":{"ha":754,"x_min":0,"x_max":0,"o":"m 132 972 l 246 972 l 246 106 l 706 106 l 706 0 l 132 0 m 364 -267 b 428 -192 400 -257 428 -240 l 428 -187 l 381 -187 l 381 -62 l 506 -62 l 506 -187 b 383 -333 506 -268 454 -318 l 364 -267 "},"Ŀ":{"ha":754,"x_min":0,"x_max":0,"o":"m 132 972 l 246 972 l 246 106 l 706 106 l 706 0 l 132 0 m 478 615 l 629 615 l 629 444 l 478 444 "},"Ł":{"ha":792,"x_min":0,"x_max":0,"o":"m 97 458 l 197 507 l 197 972 l 311 972 l 311 561 l 583 692 l 583 575 l 311 443 l 311 106 l 771 106 l 771 0 l 197 0 l 197 389 l 97 340 "},"M":{"ha":1300,"x_min":0,"x_max":0,"o":"m 243 950 l 243 0 l 132 0 l 132 972 l 349 972 l 647 22 l 953 972 l 1168 972 l 1168 0 l 1057 0 l 1057 950 l 756 0 l 543 0 "},"N":{"ha":1042,"x_min":0,"x_max":0,"o":"m 132 972 l 353 972 l 797 22 l 797 972 l 910 972 l 910 0 l 685 0 l 246 950 l 246 0 l 132 0 "},"Ń":{"ha":1042,"x_min":0,"x_max":0,"o":"m 132 972 l 353 972 l 797 22 l 797 972 l 910 972 l 910 0 l 685 0 l 246 950 l 246 0 l 132 0 m 567 1240 l 690 1240 l 585 1035 l 497 1035 "},"Ň":{"ha":1042,"x_min":0,"x_max":0,"o":"m 132 972 l 353 972 l 797 22 l 797 972 l 910 972 l 910 0 l 685 0 l 246 950 l 246 0 l 132 0 m 468 1242 l 554 1058 l 639 1242 l 743 1242 l 649 1036 l 460 1036 l 365 1242 "},"Ņ":{"ha":1042,"x_min":0,"x_max":0,"o":"m 132 972 l 353 972 l 797 22 l 797 972 l 910 972 l 910 0 l 685 0 l 246 950 l 246 0 l 132 0 m 429 -267 b 493 -192 465 -257 493 -240 l 493 -187 l 446 -187 l 446 -62 l 571 -62 l 571 -187 b 449 -333 571 -268 519 -318 l 429 -267 "},"Ñ":{"ha":1042,"x_min":0,"x_max":0,"o":"m 132 972 l 353 972 l 797 22 l 797 972 l 910 972 l 910 0 l 685 0 l 246 950 l 246 0 l 132 0 m 338 1083 b 458 1210 340 1158 388 1210 b 546 1181 493 1210 522 1194 l 581 1160 b 629 1140 597 1150 614 1140 b 681 1201 660 1140 681 1163 l 681 1210 l 760 1175 b 639 1049 757 1100 710 1049 b 553 1078 604 1049 579 1061 l 519 1099 b 468 1118 504 1108 489 1118 b 417 1054 438 1118 417 1093 l 417 1046 l 338 1083 "},"Ŋ":{"ha":1042,"x_min":0,"x_max":0,"o":"m 650 -319 l 650 -222 l 664 -222 b 800 -85 754 -222 800 -162 l 800 0 l 685 0 l 246 950 l 246 0 l 132 0 l 132 972 l 353 972 l 797 22 l 797 972 l 910 972 l 910 -86 b 663 -319 910 -232 794 -319 "},"O":{"ha":1139,"x_min":0,"x_max":0,"o":"m 568 -18 b 69 486 286 -18 69 197 b 569 990 69 772 288 990 b 1069 486 853 990 1069 769 b 568 -18 1069 200 851 -18 m 186 486 b 569 88 186 256 354 88 b 953 486 785 88 953 256 b 569 885 953 714 785 885 b 186 486 354 885 186 714 "},"Ó":{"ha":1139,"x_min":0,"x_max":0,"o":"m 568 -18 b 69 486 286 -18 69 197 b 569 990 69 772 288 990 b 1069 486 853 990 1069 769 b 568 -18 1069 200 851 -18 m 186 486 b 569 88 186 256 354 88 b 953 486 785 88 953 256 b 569 885 953 714 785 885 b 186 486 354 885 186 714 m 588 1240 l 711 1240 l 606 1035 l 518 1035 "},"Ŏ":{"ha":1139,"x_min":0,"x_max":0,"o":"m 568 -18 b 69 486 286 -18 69 197 b 569 990 69 772 288 990 b 1069 486 853 990 1069 769 b 568 -18 1069 200 851 -18 m 186 486 b 569 88 186 256 354 88 b 953 486 785 88 953 256 b 569 885 953 714 785 885 b 186 486 354 885 186 714 m 392 1236 l 483 1236 l 483 1224 b 575 1136 483 1175 514 1136 b 667 1224 635 1136 667 1176 l 667 1236 l 758 1236 l 758 1224 b 575 1047 758 1119 688 1047 b 392 1224 463 1047 392 1119 "},"Ǒ":{"ha":1139,"x_min":0,"x_max":0,"o":"m 568 -18 b 69 486 286 -18 69 197 b 569 990 69 772 288 990 b 1069 486 853 990 1069 769 b 568 -18 1069 200 851 -18 m 186 486 b 569 88 186 256 354 88 b 953 486 785 88 953 256 b 569 885 953 714 785 885 b 186 486 354 885 186 714 m 489 1242 l 575 1058 l 660 1242 l 764 1242 l 669 1036 l 481 1036 l 386 1242 "},"Ô":{"ha":1139,"x_min":0,"x_max":0,"o":"m 568 -18 b 69 486 286 -18 69 197 b 569 990 69 772 288 990 b 1069 486 853 990 1069 769 b 568 -18 1069 200 851 -18 m 186 486 b 569 88 186 256 354 88 b 953 486 785 88 953 256 b 569 885 953 714 785 885 b 186 486 354 885 186 714 m 479 1240 l 668 1240 l 763 1035 l 660 1035 l 574 1218 l 489 1035 l 385 1035 "},"Ö":{"ha":1139,"x_min":0,"x_max":0,"o":"m 568 -18 b 69 486 286 -18 69 197 b 569 990 69 772 288 990 b 1069 486 853 990 1069 769 b 568 -18 1069 200 851 -18 m 186 486 b 569 88 186 256 354 88 b 953 486 785 88 953 256 b 569 885 953 714 785 885 b 186 486 354 885 186 714 m 393 1226 l 518 1226 l 518 1090 l 393 1090 m 624 1226 l 749 1226 l 749 1090 l 624 1090 "},"Ò":{"ha":1139,"x_min":0,"x_max":0,"o":"m 568 -18 b 69 486 286 -18 69 197 b 569 990 69 772 288 990 b 1069 486 853 990 1069 769 b 568 -18 1069 200 851 -18 m 186 486 b 569 88 186 256 354 88 b 953 486 785 88 953 256 b 569 885 953 714 785 885 b 186 486 354 885 186 714 m 567 1240 l 636 1035 l 549 1035 l 443 1240 "},"Ő":{"ha":1139,"x_min":0,"x_max":0,"o":"m 568 -18 b 69 486 286 -18 69 197 b 569 990 69 772 288 990 b 1069 486 853 990 1069 769 b 568 -18 1069 200 851 -18 m 186 486 b 569 88 186 256 354 88 b 953 486 785 88 953 256 b 569 885 953 714 785 885 b 186 486 354 885 186 714 m 497 1254 l 619 1254 l 503 1035 l 414 1035 m 699 1254 l 821 1254 l 704 1035 l 615 1035 "},"Ō":{"ha":1139,"x_min":0,"x_max":0,"o":"m 568 -18 b 69 486 286 -18 69 197 b 569 990 69 772 288 990 b 1069 486 853 990 1069 769 b 568 -18 1069 200 851 -18 m 186 486 b 569 88 186 256 354 88 b 953 486 785 88 953 256 b 569 885 953 714 785 885 b 186 486 354 885 186 714 m 407 1183 l 743 1183 l 743 1083 l 407 1083 "},"Ø":{"ha":1139,"x_min":0,"x_max":0,"o":"m 133 -69 l 244 97 b 69 486 136 188 69 325 b 569 990 69 772 288 990 b 804 933 656 990 735 969 l 867 1026 l 992 1026 l 892 876 b 1069 486 1001 785 1069 646 b 568 -18 1069 200 851 -18 b 331 39 482 -18 401 3 l 258 -69 m 186 486 b 307 190 186 365 232 261 l 744 843 b 569 885 692 869 633 885 b 186 486 354 885 186 714 m 392 131 b 569 88 444 103 506 88 b 953 486 785 88 953 256 b 829 783 953 607 906 711 l 392 131 "},"Õ":{"ha":1139,"x_min":0,"x_max":0,"o":"m 568 -18 b 69 486 286 -18 69 197 b 569 990 69 772 288 990 b 1069 486 853 990 1069 769 b 568 -18 1069 200 851 -18 m 186 486 b 569 88 186 256 354 88 b 953 486 785 88 953 256 b 569 885 953 714 785 885 b 186 486 354 885 186 714 m 358 1083 b 479 1210 361 1158 408 1210 b 567 1181 514 1210 543 1194 l 601 1160 b 650 1140 618 1150 635 1140 b 701 1201 681 1140 701 1163 l 701 1210 l 781 1175 b 660 1049 778 1100 731 1049 b 574 1078 625 1049 600 1061 l 540 1099 b 489 1118 525 1108 510 1118 b 438 1054 458 1118 438 1093 l 438 1046 l 358 1083 "},"Œ":{"ha":1518,"x_min":0,"x_max":0,"o":"m 568 -18 b 69 486 286 -18 69 197 b 569 990 69 772 288 990 b 707 972 617 990 663 983 l 1426 972 l 1426 869 l 899 869 b 1067 546 990 790 1051 676 l 1379 546 l 1379 444 l 1068 444 b 897 101 1057 306 994 185 l 1442 101 l 1442 0 l 706 0 b 568 -18 663 -11 617 -18 m 186 486 b 569 88 186 256 354 88 b 953 486 785 88 953 256 b 569 885 953 714 785 885 b 186 486 354 885 186 714 "},"P":{"ha":840,"x_min":0,"x_max":0,"o":"m 132 972 l 488 972 b 792 681 664 972 792 857 b 488 382 792 506 658 382 l 244 382 l 244 0 l 132 0 m 478 485 b 676 681 594 485 676 568 b 478 871 676 792 594 871 l 244 871 l 244 485 "},"Þ":{"ha":840,"x_min":0,"x_max":0,"o":"m 132 972 l 244 972 l 244 831 l 488 831 b 792 539 664 831 792 715 b 488 240 792 364 658 240 l 244 240 l 244 0 l 132 0 m 478 343 b 676 539 594 343 676 426 b 478 729 676 650 594 729 l 244 729 l 244 343 "},"Q":{"ha":1121,"x_min":0,"x_max":0,"o":"m 596 -1 b 69 493 258 -1 69 239 b 563 990 69 779 281 990 b 1051 518 849 990 1051 779 b 654 104 1051 219 807 104 l 1033 104 l 1032 -1 l 596 -1 m 186 493 b 574 104 186 263 358 104 b 939 504 789 104 939 274 b 563 885 939 725 781 885 b 186 493 347 885 186 721 "},"R":{"ha":910,"x_min":0,"x_max":0,"o":"m 132 972 l 503 972 b 806 722 697 972 806 858 b 556 490 806 606 732 490 b 797 258 711 485 797 386 l 797 0 l 681 0 l 681 239 b 513 390 681 335 625 390 l 244 390 l 244 0 l 132 0 m 489 493 b 689 685 603 493 689 571 b 482 869 689 788 625 869 l 244 869 l 244 493 "},"Ŕ":{"ha":910,"x_min":0,"x_max":0,"o":"m 132 972 l 503 972 b 806 722 697 972 806 858 b 556 490 806 606 732 490 b 797 258 711 485 797 386 l 797 0 l 681 0 l 681 239 b 513 390 681 335 625 390 l 244 390 l 244 0 l 132 0 m 489 493 b 689 685 603 493 689 571 b 482 869 689 788 625 869 l 244 869 l 244 493 m 461 1240 l 585 1240 l 479 1035 l 392 1035 "},"Ř":{"ha":910,"x_min":0,"x_max":0,"o":"m 132 972 l 503 972 b 806 722 697 972 806 858 b 556 490 806 606 732 490 b 797 258 711 485 797 386 l 797 0 l 681 0 l 681 239 b 513 390 681 335 625 390 l 244 390 l 244 0 l 132 0 m 489 493 b 689 685 603 493 689 571 b 482 869 689 788 625 869 l 244 869 l 244 493 m 363 1242 l 449 1058 l 533 1242 l 638 1242 l 543 1036 l 354 1036 l 260 1242 "},"Ŗ":{"ha":910,"x_min":0,"x_max":0,"o":"m 132 972 l 503 972 b 806 722 697 972 806 858 b 556 490 806 606 732 490 b 797 258 711 485 797 386 l 797 0 l 681 0 l 681 239 b 513 390 681 335 625 390 l 244 390 l 244 0 l 132 0 m 489 493 b 689 685 603 493 689 571 b 482 869 689 788 625 869 l 244 869 l 244 493 m 390 -267 b 454 -192 426 -257 454 -240 l 454 -187 l 407 -187 l 407 -62 l 532 -62 l 532 -187 b 410 -333 532 -268 481 -318 l 390 -267 "},"S":{"ha":888,"x_min":0,"x_max":0,"o":"m 453 -18 b 90 231 278 -18 135 61 l 196 264 b 453 86 226 147 317 86 b 681 264 594 86 681 165 b 511 438 681 360 614 414 l 371 469 b 132 729 246 497 132 568 b 450 990 132 876 256 990 b 776 767 626 990 744 901 l 674 733 b 450 888 651 828 565 888 b 243 729 310 888 243 810 b 397 576 243 633 318 594 l 540 543 b 797 264 676 511 797 428 b 453 -18 797 114 669 -18 "},"Ś":{"ha":888,"x_min":0,"x_max":0,"o":"m 453 -18 b 90 231 278 -18 135 61 l 196 264 b 453 86 226 147 317 86 b 681 264 594 86 681 165 b 511 438 681 360 614 414 l 371 469 b 132 729 246 497 132 568 b 450 990 132 876 256 990 b 776 767 626 990 744 901 l 674 733 b 450 888 651 828 565 888 b 243 729 310 888 243 810 b 397 576 243 633 318 594 l 540 543 b 797 264 676 511 797 428 b 453 -18 797 114 669 -18 m 475 1240 l 599 1240 l 493 1035 l 406 1035 "},"Š":{"ha":888,"x_min":0,"x_max":0,"o":"m 453 -18 b 90 231 278 -18 135 61 l 196 264 b 453 86 226 147 317 86 b 681 264 594 86 681 165 b 511 438 681 360 614 414 l 371 469 b 132 729 246 497 132 568 b 450 990 132 876 256 990 b 776 767 626 990 744 901 l 674 733 b 450 888 651 828 565 888 b 243 729 310 888 243 810 b 397 576 243 633 318 594 l 540 543 b 797 264 676 511 797 428 b 453 -18 797 114 669 -18 m 376 1242 l 463 1058 l 547 1242 l 651 1242 l 557 1036 l 368 1036 l 274 1242 "},"Ş":{"ha":888,"x_min":0,"x_max":0,"o":"m 471 -285 b 372 -229 428 -285 392 -265 l 429 -190 b 471 -215 438 -207 454 -215 b 518 -167 496 -215 518 -197 b 471 -121 518 -139 496 -121 b 429 -144 453 -121 438 -131 l 367 -103 l 394 -15 b 90 231 246 1 129 81 l 196 264 b 453 86 226 147 317 86 b 681 264 594 86 681 165 b 511 438 681 360 614 414 l 371 469 b 132 729 246 497 132 568 b 450 990 132 876 256 990 b 776 767 626 990 744 901 l 674 733 b 450 888 651 828 565 888 b 243 729 310 888 243 810 b 397 576 243 633 318 594 l 540 543 b 797 264 676 511 797 428 b 469 -18 797 118 676 -11 l 432 -128 b 504 -71 447 -83 478 -71 b 593 -169 553 -71 593 -114 b 471 -285 593 -235 544 -285 "},"Ŝ":{"ha":888,"x_min":0,"x_max":0,"o":"m 453 -18 b 90 231 278 -18 135 61 l 196 264 b 453 86 226 147 317 86 b 681 264 594 86 681 165 b 511 438 681 360 614 414 l 371 469 b 132 729 246 497 132 568 b 450 990 132 876 256 990 b 776 767 626 990 744 901 l 674 733 b 450 888 651 828 565 888 b 243 729 310 888 243 810 b 397 576 243 633 318 594 l 540 543 b 797 264 676 511 797 428 b 453 -18 797 114 669 -18 m 367 1240 l 556 1240 l 650 1035 l 547 1035 l 461 1218 l 376 1035 l 272 1035 "},"Ș":{"ha":888,"x_min":0,"x_max":0,"o":"m 453 -18 b 90 231 278 -18 135 61 l 196 264 b 453 86 226 147 317 86 b 681 264 594 86 681 165 b 511 438 681 360 614 414 l 371 469 b 132 729 246 497 132 568 b 450 990 132 876 256 990 b 776 767 626 990 744 901 l 674 733 b 450 888 651 828 565 888 b 243 729 310 888 243 810 b 397 576 243 633 318 594 l 540 543 b 797 264 676 511 797 428 b 453 -18 797 114 669 -18 m 356 -267 b 419 -192 392 -257 419 -240 l 419 -187 l 372 -187 l 372 -62 l 497 -62 l 497 -187 b 375 -333 497 -268 446 -318 l 356 -267 "},"ẞ":{"ha":1003,"x_min":0,"x_max":0,"o":"m 599 -17 b 342 110 492 -17 399 24 l 419 175 b 599 86 467 107 531 86 b 799 289 721 86 799 179 b 607 475 799 392 721 475 l 444 475 l 444 685 l 786 867 l 454 867 b 243 675 311 867 243 781 l 243 0 l 132 0 l 132 672 b 454 972 132 843 246 972 l 808 972 l 808 760 l 467 581 l 607 581 b 913 289 786 581 913 458 b 599 -17 913 139 806 -17 "},"T":{"ha":860,"x_min":0,"x_max":0,"o":"m 372 867 l 56 867 l 56 972 l 804 972 l 804 867 l 486 867 l 486 0 l 372 0 "},"Ŧ":{"ha":860,"x_min":0,"x_max":0,"o":"m 154 604 l 372 604 l 372 867 l 56 867 l 56 972 l 804 972 l 804 867 l 486 867 l 486 604 l 700 604 l 700 507 l 486 507 l 486 0 l 372 0 l 372 507 l 154 507 "},"Ť":{"ha":860,"x_min":0,"x_max":0,"o":"m 372 867 l 56 867 l 56 972 l 804 972 l 804 867 l 486 867 l 486 0 l 372 0 m 351 1269 l 438 1086 l 522 1269 l 626 1269 l 532 1064 l 343 1064 l 249 1269 "},"Ţ":{"ha":860,"x_min":0,"x_max":0,"o":"m 372 867 l 56 867 l 56 972 l 804 972 l 804 867 l 486 867 l 486 0 l 469 0 l 426 -128 b 499 -71 442 -83 472 -71 b 588 -169 547 -71 588 -114 b 465 -285 588 -235 539 -285 b 367 -229 422 -285 386 -265 l 424 -190 b 465 -215 432 -207 449 -215 b 513 -167 490 -215 513 -197 b 465 -121 513 -139 490 -121 b 424 -144 447 -121 432 -131 l 361 -103 l 393 0 l 372 0 "},"Ț":{"ha":860,"x_min":0,"x_max":0,"o":"m 372 867 l 56 867 l 56 972 l 804 972 l 804 867 l 486 867 l 486 0 l 372 0 m 350 -267 b 414 -192 386 -257 414 -240 l 414 -187 l 367 -187 l 367 -62 l 492 -62 l 492 -187 b 369 -333 492 -268 440 -318 l 350 -267 "},"U":{"ha":961,"x_min":0,"x_max":0,"o":"m 488 -18 b 118 338 264 -18 118 131 l 118 972 l 232 972 l 232 339 b 488 86 232 178 333 86 b 743 339 642 86 743 178 l 743 972 l 857 972 l 857 338 b 488 -18 857 131 711 -18 "},"Ú":{"ha":961,"x_min":0,"x_max":0,"o":"m 488 -18 b 118 338 264 -18 118 131 l 118 972 l 232 972 l 232 339 b 488 86 232 178 333 86 b 743 339 642 86 743 178 l 743 972 l 857 972 l 857 338 b 488 -18 857 131 711 -18 m 496 1240 l 619 1240 l 514 1035 l 426 1035 "},"Ŭ":{"ha":961,"x_min":0,"x_max":0,"o":"m 488 -18 b 118 338 264 -18 118 131 l 118 972 l 232 972 l 232 339 b 488 86 232 178 333 86 b 743 339 642 86 743 178 l 743 972 l 857 972 l 857 338 b 488 -18 857 131 711 -18 m 300 1236 l 392 1236 l 392 1224 b 483 1136 392 1175 422 1136 b 575 1224 543 1136 575 1176 l 575 1236 l 667 1236 l 667 1224 b 483 1047 667 1119 596 1047 b 300 1224 371 1047 300 1119 "},"Û":{"ha":961,"x_min":0,"x_max":0,"o":"m 488 -18 b 118 338 264 -18 118 131 l 118 972 l 232 972 l 232 339 b 488 86 232 178 333 86 b 743 339 642 86 743 178 l 743 972 l 857 972 l 857 338 b 488 -18 857 131 711 -18 m 388 1240 l 576 1240 l 671 1035 l 568 1035 l 482 1218 l 397 1035 l 293 1035 "},"Ü":{"ha":961,"x_min":0,"x_max":0,"o":"m 488 -18 b 118 338 264 -18 118 131 l 118 972 l 232 972 l 232 339 b 488 86 232 178 333 86 b 743 339 642 86 743 178 l 743 972 l 857 972 l 857 338 b 488 -18 857 131 711 -18 m 301 1226 l 426 1226 l 426 1090 l 301 1090 m 532 1226 l 657 1226 l 657 1090 l 532 1090 "},"Ù":{"ha":961,"x_min":0,"x_max":0,"o":"m 488 -18 b 118 338 264 -18 118 131 l 118 972 l 232 972 l 232 339 b 488 86 232 178 333 86 b 743 339 642 86 743 178 l 743 972 l 857 972 l 857 338 b 488 -18 857 131 711 -18 m 475 1240 l 544 1035 l 457 1035 l 351 1240 "},"Ű":{"ha":961,"x_min":0,"x_max":0,"o":"m 488 -18 b 118 338 264 -18 118 131 l 118 972 l 232 972 l 232 339 b 488 86 232 178 333 86 b 743 339 642 86 743 178 l 743 972 l 857 972 l 857 338 b 488 -18 857 131 711 -18 m 406 1254 l 528 1254 l 411 1035 l 322 1035 m 607 1254 l 729 1254 l 613 1035 l 524 1035 "},"Ū":{"ha":961,"x_min":0,"x_max":0,"o":"m 488 -18 b 118 338 264 -18 118 131 l 118 972 l 232 972 l 232 339 b 488 86 232 178 333 86 b 743 339 642 86 743 178 l 743 972 l 857 972 l 857 338 b 488 -18 857 131 711 -18 m 315 1183 l 651 1183 l 651 1083 l 315 1083 "},"Ų":{"ha":961,"x_min":0,"x_max":0,"o":"m 488 -18 b 118 338 264 -18 118 131 l 118 972 l 232 972 l 232 339 b 488 86 232 178 333 86 b 743 339 642 86 743 178 l 743 972 l 857 972 l 857 338 b 774 100 857 243 826 161 l 600 -114 b 583 -153 590 -126 583 -140 b 631 -199 583 -179 603 -199 b 669 -190 646 -199 657 -196 l 692 -267 b 610 -285 672 -278 640 -285 b 485 -168 544 -285 485 -243 b 521 -75 485 -131 496 -107 l 574 -10 b 488 -18 546 -15 518 -18 "},"Ů":{"ha":961,"x_min":0,"x_max":0,"o":"m 488 -18 b 118 338 264 -18 118 131 l 118 972 l 232 972 l 232 339 b 488 86 232 178 333 86 b 743 339 642 86 743 178 l 743 972 l 857 972 l 857 338 b 488 -18 857 131 711 -18 m 342 1158 b 482 1296 342 1238 401 1296 b 625 1160 567 1296 625 1238 b 483 1021 625 1081 565 1021 b 342 1158 401 1021 342 1081 m 421 1158 b 483 1094 421 1124 446 1094 b 546 1160 521 1094 546 1124 b 482 1222 546 1193 521 1222 b 421 1158 446 1222 421 1193 "},"Ũ":{"ha":961,"x_min":0,"x_max":0,"o":"m 488 -18 b 118 338 264 -18 118 131 l 118 972 l 232 972 l 232 339 b 488 86 232 178 333 86 b 743 339 642 86 743 178 l 743 972 l 857 972 l 857 338 b 488 -18 857 131 711 -18 m 267 1083 b 388 1210 269 1158 317 1210 b 475 1181 422 1210 451 1194 l 510 1160 b 558 1140 526 1150 543 1140 b 610 1201 589 1140 610 1163 l 610 1210 l 689 1175 b 568 1049 686 1100 639 1049 b 482 1078 533 1049 508 1061 l 449 1099 b 397 1118 433 1108 418 1118 b 346 1054 367 1118 346 1093 l 346 1046 l 267 1083 "},"V":{"ha":958,"x_min":0,"x_max":0,"o":"m 42 972 l 167 972 l 479 22 l 792 972 l 917 972 l 589 0 l 371 0 "},"W":{"ha":1344,"x_min":0,"x_max":0,"o":"m 42 972 l 164 972 l 371 22 l 565 972 l 779 972 l 975 22 l 1182 972 l 1303 972 l 1081 0 l 865 0 l 674 950 l 479 0 l 264 0 "},"Ẃ":{"ha":1344,"x_min":0,"x_max":0,"o":"m 42 972 l 164 972 l 371 22 l 565 972 l 779 972 l 975 22 l 1182 972 l 1303 972 l 1081 0 l 865 0 l 674 950 l 479 0 l 264 0 m 688 1240 l 811 1240 l 706 1035 l 618 1035 "},"Ŵ":{"ha":1344,"x_min":0,"x_max":0,"o":"m 42 972 l 164 972 l 371 22 l 565 972 l 779 972 l 975 22 l 1182 972 l 1303 972 l 1081 0 l 865 0 l 674 950 l 479 0 l 264 0 m 579 1240 l 768 1240 l 863 1035 l 760 1035 l 674 1218 l 589 1035 l 485 1035 "},"Ẅ":{"ha":1344,"x_min":0,"x_max":0,"o":"m 42 972 l 164 972 l 371 22 l 565 972 l 779 972 l 975 22 l 1182 972 l 1303 972 l 1081 0 l 865 0 l 674 950 l 479 0 l 264 0 m 493 1226 l 618 1226 l 618 1090 l 493 1090 m 724 1226 l 849 1226 l 849 1090 l 724 1090 "},"Ẁ":{"ha":1344,"x_min":0,"x_max":0,"o":"m 42 972 l 164 972 l 371 22 l 565 972 l 779 972 l 975 22 l 1182 972 l 1303 972 l 1081 0 l 865 0 l 674 950 l 479 0 l 264 0 m 667 1240 l 736 1035 l 649 1035 l 543 1240 "},"X":{"ha":869,"x_min":0,"x_max":0,"o":"m 319 497 l 32 972 l 157 972 l 436 510 l 714 972 l 840 972 l 550 497 l 849 0 l 722 0 l 436 489 l 146 0 l 21 0 "},"Y":{"ha":925,"x_min":0,"x_max":0,"o":"m 406 383 l 356 383 l 42 972 l 168 972 l 464 406 l 751 972 l 883 972 l 568 383 l 519 383 l 519 0 l 406 0 "},"Ý":{"ha":925,"x_min":0,"x_max":0,"o":"m 406 383 l 356 383 l 42 972 l 168 972 l 464 406 l 751 972 l 883 972 l 568 383 l 519 383 l 519 0 l 406 0 m 475 1240 l 599 1240 l 493 1035 l 406 1035 "},"Ŷ":{"ha":925,"x_min":0,"x_max":0,"o":"m 406 383 l 356 383 l 42 972 l 168 972 l 464 406 l 751 972 l 883 972 l 568 383 l 519 383 l 519 0 l 406 0 m 367 1240 l 556 1240 l 650 1035 l 547 1035 l 461 1218 l 376 1035 l 272 1035 "},"Ÿ":{"ha":925,"x_min":0,"x_max":0,"o":"m 406 383 l 356 383 l 42 972 l 168 972 l 464 406 l 751 972 l 883 972 l 568 383 l 519 383 l 519 0 l 406 0 m 281 1226 l 406 1226 l 406 1090 l 281 1090 m 511 1226 l 636 1226 l 636 1090 l 511 1090 "},"Ỳ":{"ha":925,"x_min":0,"x_max":0,"o":"m 406 383 l 356 383 l 42 972 l 168 972 l 464 406 l 751 972 l 883 972 l 568 383 l 519 383 l 519 0 l 406 0 m 454 1240 l 524 1035 l 436 1035 l 331 1240 "},"Z":{"ha":943,"x_min":0,"x_max":0,"o":"m 104 236 l 814 864 l 122 864 l 122 972 l 836 972 l 836 736 l 126 108 l 839 108 l 839 0 l 104 0 "},"Ź":{"ha":943,"x_min":0,"x_max":0,"o":"m 104 236 l 814 864 l 122 864 l 122 972 l 836 972 l 836 736 l 126 108 l 839 108 l 839 0 l 104 0 m 485 1240 l 608 1240 l 503 1035 l 415 1035 "},"Ž":{"ha":943,"x_min":0,"x_max":0,"o":"m 104 236 l 814 864 l 122 864 l 122 972 l 836 972 l 836 736 l 126 108 l 839 108 l 839 0 l 104 0 m 386 1242 l 472 1058 l 557 1242 l 661 1242 l 567 1036 l 378 1036 l 283 1242 "},"Ż":{"ha":943,"x_min":0,"x_max":0,"o":"m 104 236 l 814 864 l 122 864 l 122 972 l 836 972 l 836 736 l 126 108 l 839 108 l 839 0 l 104 0 m 417 1226 l 533 1226 l 533 1083 l 417 1083 "},"a":{"ha":775,"x_min":0,"x_max":0,"o":"m 326 -18 b 76 206 176 -18 76 79 b 310 431 76 339 175 417 l 568 458 b 379 626 565 551 500 626 b 203 493 271 626 218 560 l 104 524 b 379 726 133 643 232 726 b 678 451 579 726 678 594 l 678 0 l 567 0 l 567 222 b 326 -18 567 72 464 -18 m 188 206 b 342 78 188 125 257 78 b 568 315 508 78 568 207 l 568 361 l 335 336 b 188 206 235 325 188 278 "},"á":{"ha":775,"x_min":0,"x_max":0,"o":"m 326 -18 b 76 206 176 -18 76 79 b 310 431 76 339 175 417 l 568 458 b 379 626 565 551 500 626 b 203 493 271 626 218 560 l 104 524 b 379 726 133 643 232 726 b 678 451 579 726 678 594 l 678 0 l 567 0 l 567 222 b 326 -18 567 72 464 -18 m 188 206 b 342 78 188 125 257 78 b 568 315 508 78 568 207 l 568 361 l 335 336 b 188 206 235 325 188 278 m 400 1004 l 524 1004 l 418 799 l 331 799 "},"ă":{"ha":775,"x_min":0,"x_max":0,"o":"m 326 -18 b 76 206 176 -18 76 79 b 310 431 76 339 175 417 l 568 458 b 379 626 565 551 500 626 b 203 493 271 626 218 560 l 104 524 b 379 726 133 643 232 726 b 678 451 579 726 678 594 l 678 0 l 567 0 l 567 222 b 326 -18 567 72 464 -18 m 188 206 b 342 78 188 125 257 78 b 568 315 508 78 568 207 l 568 361 l 335 336 b 188 206 235 325 188 278 m 204 1000 l 296 1000 l 296 988 b 388 900 296 939 326 900 b 479 988 447 900 479 940 l 479 1000 l 571 1000 l 571 988 b 388 811 571 883 500 811 b 204 988 275 811 204 883 "},"ǎ":{"ha":775,"x_min":0,"x_max":0,"o":"m 326 -18 b 76 206 176 -18 76 79 b 310 431 76 339 175 417 l 568 458 b 379 626 565 551 500 626 b 203 493 271 626 218 560 l 104 524 b 379 726 133 643 232 726 b 678 451 579 726 678 594 l 678 0 l 567 0 l 567 222 b 326 -18 567 72 464 -18 m 188 206 b 342 78 188 125 257 78 b 568 315 508 78 568 207 l 568 361 l 335 336 b 188 206 235 325 188 278 m 301 1006 l 388 822 l 472 1006 l 576 1006 l 482 800 l 293 800 l 199 1006 "},"â":{"ha":775,"x_min":0,"x_max":0,"o":"m 326 -18 b 76 206 176 -18 76 79 b 310 431 76 339 175 417 l 568 458 b 379 626 565 551 500 626 b 203 493 271 626 218 560 l 104 524 b 379 726 133 643 232 726 b 678 451 579 726 678 594 l 678 0 l 567 0 l 567 222 b 326 -18 567 72 464 -18 m 188 206 b 342 78 188 125 257 78 b 568 315 508 78 568 207 l 568 361 l 335 336 b 188 206 235 325 188 278 m 292 1004 l 481 1004 l 575 799 l 472 799 l 386 982 l 301 799 l 197 799 "},"ä":{"ha":775,"x_min":0,"x_max":0,"o":"m 326 -18 b 76 206 176 -18 76 79 b 310 431 76 339 175 417 l 568 458 b 379 626 565 551 500 626 b 203 493 271 626 218 560 l 104 524 b 379 726 133 643 232 726 b 678 451 579 726 678 594 l 678 0 l 567 0 l 567 222 b 326 -18 567 72 464 -18 m 188 206 b 342 78 188 125 257 78 b 568 315 508 78 568 207 l 568 361 l 335 336 b 188 206 235 325 188 278 m 206 990 l 331 990 l 331 854 l 206 854 m 436 990 l 561 990 l 561 854 l 436 854 "},"à":{"ha":775,"x_min":0,"x_max":0,"o":"m 326 -18 b 76 206 176 -18 76 79 b 310 431 76 339 175 417 l 568 458 b 379 626 565 551 500 626 b 203 493 271 626 218 560 l 104 524 b 379 726 133 643 232 726 b 678 451 579 726 678 594 l 678 0 l 567 0 l 567 222 b 326 -18 567 72 464 -18 m 188 206 b 342 78 188 125 257 78 b 568 315 508 78 568 207 l 568 361 l 335 336 b 188 206 235 325 188 278 m 379 1004 l 449 799 l 361 799 l 256 1004 "},"ā":{"ha":775,"x_min":0,"x_max":0,"o":"m 326 -18 b 76 206 176 -18 76 79 b 310 431 76 339 175 417 l 568 458 b 379 626 565 551 500 626 b 203 493 271 626 218 560 l 104 524 b 379 726 133 643 232 726 b 678 451 579 726 678 594 l 678 0 l 567 0 l 567 222 b 326 -18 567 72 464 -18 m 188 206 b 342 78 188 125 257 78 b 568 315 508 78 568 207 l 568 361 l 335 336 b 188 206 235 325 188 278 m 219 947 l 556 947 l 556 847 l 219 847 "},"ą":{"ha":775,"x_min":0,"x_max":0,"o":"m 326 -18 b 76 206 176 -18 76 79 b 310 431 76 339 175 417 l 568 458 b 379 626 565 551 500 626 b 203 493 271 626 218 560 l 104 524 b 379 726 133 643 232 726 b 678 451 579 726 678 594 l 678 0 l 586 -114 b 569 -153 575 -126 569 -140 b 617 -199 569 -179 589 -199 b 656 -190 632 -199 643 -196 l 678 -267 b 596 -285 658 -278 626 -285 b 471 -168 531 -285 471 -243 b 507 -75 471 -131 482 -107 l 567 0 l 567 222 b 326 -18 567 72 464 -18 m 188 206 b 342 78 188 125 257 78 b 568 315 508 78 568 207 l 568 361 l 335 336 b 188 206 235 325 188 278 "},"å":{"ha":775,"x_min":0,"x_max":0,"o":"m 326 -18 b 76 206 176 -18 76 79 b 310 431 76 339 175 417 l 568 458 b 379 626 565 551 500 626 b 203 493 271 626 218 560 l 104 524 b 379 726 133 643 232 726 b 678 451 579 726 678 594 l 678 0 l 567 0 l 567 222 b 326 -18 567 72 464 -18 m 188 206 b 342 78 188 125 257 78 b 568 315 508 78 568 207 l 568 361 l 335 336 b 188 206 235 325 188 278 m 246 922 b 386 1060 246 1001 306 1060 b 529 924 471 1060 529 1001 b 388 785 529 844 469 785 b 246 922 306 785 246 844 m 325 922 b 388 858 325 888 350 858 b 450 924 425 858 450 888 b 386 986 450 957 425 986 b 325 922 350 986 325 957 "},"ã":{"ha":775,"x_min":0,"x_max":0,"o":"m 326 -18 b 76 206 176 -18 76 79 b 310 431 76 339 175 417 l 568 458 b 379 626 565 551 500 626 b 203 493 271 626 218 560 l 104 524 b 379 726 133 643 232 726 b 678 451 579 726 678 594 l 678 0 l 567 0 l 567 222 b 326 -18 567 72 464 -18 m 171 847 b 292 974 174 922 221 974 b 379 944 326 974 356 958 l 414 924 b 463 904 431 914 447 904 b 514 965 493 904 514 926 l 514 974 l 593 939 b 472 813 590 864 543 813 b 386 842 438 813 413 825 l 353 863 b 301 882 338 872 322 882 b 250 818 271 882 250 857 l 250 810 l 171 847 m 188 206 b 342 78 188 125 257 78 b 568 315 508 78 568 207 l 568 361 l 335 336 b 188 206 235 325 188 278 "},"æ":{"ha":1218,"x_min":0,"x_max":0,"o":"m 867 -18 b 588 276 729 -18 588 79 b 317 -18 588 44 457 -18 b 76 204 193 -18 76 71 b 333 424 76 338 181 424 l 574 424 l 574 435 b 375 626 574 543 497 626 b 203 494 267 626 215 560 l 106 522 b 364 726 129 643 231 726 b 590 460 500 726 603 638 b 869 726 603 617 715 726 b 1161 368 1071 726 1174 554 l 1158 328 l 600 328 b 840 82 606 176 694 82 b 1053 201 936 82 1004 121 l 1136 149 b 867 -18 1082 51 989 -18 m 188 204 b 349 78 188 119 264 78 b 574 315 515 78 574 207 l 574 328 l 343 328 b 188 204 242 328 188 276 m 1053 424 b 835 629 1053 540 965 629 b 600 424 699 629 613 532 "},"b":{"ha":879,"x_min":0,"x_max":0,"o":"m 504 -18 b 222 250 329 -18 244 110 l 222 0 l 111 0 l 111 972 l 222 972 l 222 469 b 504 726 244 626 360 726 b 824 353 690 726 824 568 b 504 -18 824 139 686 -18 m 218 353 b 463 82 218 204 313 82 b 710 353 604 82 710 186 b 465 626 710 515 604 626 b 218 353 329 626 218 529 "},"c":{"ha":810,"x_min":0,"x_max":0,"o":"m 421 -18 b 56 354 208 -18 56 140 b 421 726 56 568 213 726 b 742 518 554 726 685 661 l 647 469 b 421 624 621 547 538 624 b 169 354 274 624 169 511 b 421 85 169 192 279 85 b 664 254 524 85 622 139 l 754 210 b 421 -18 696 47 564 -18 "},"ć":{"ha":810,"x_min":0,"x_max":0,"o":"m 421 -18 b 56 354 208 -18 56 140 b 421 726 56 568 213 726 b 742 518 554 726 685 661 l 647 469 b 421 624 621 547 538 624 b 169 354 274 624 169 511 b 421 85 169 192 279 85 b 664 254 524 85 622 139 l 754 210 b 421 -18 696 47 564 -18 m 432 1003 l 556 1003 l 450 797 l 363 797 "},"č":{"ha":810,"x_min":0,"x_max":0,"o":"m 421 -18 b 56 354 208 -18 56 140 b 421 726 56 568 213 726 b 742 518 554 726 685 661 l 647 469 b 421 624 621 547 538 624 b 169 354 274 624 169 511 b 421 85 169 192 279 85 b 664 254 524 85 622 139 l 754 210 b 421 -18 696 47 564 -18 m 333 1004 l 419 821 l 504 1004 l 608 1004 l 514 799 l 325 799 l 231 1004 "},"ç":{"ha":810,"x_min":0,"x_max":0,"o":"m 429 -285 b 331 -229 386 -285 350 -265 l 388 -190 b 429 -215 396 -207 413 -215 b 476 -167 454 -215 476 -197 b 429 -121 476 -139 454 -121 b 388 -144 411 -121 396 -131 l 325 -103 l 353 -12 b 56 354 176 18 56 164 b 421 726 56 568 213 726 b 742 518 554 726 685 661 l 647 469 b 421 624 621 547 538 624 b 169 354 274 624 169 511 b 421 85 169 192 279 85 b 664 254 524 85 622 139 l 754 210 b 428 -18 697 50 568 -17 l 390 -128 b 463 -71 406 -83 436 -71 b 551 -169 511 -71 551 -114 b 429 -285 551 -235 503 -285 "},"ĉ":{"ha":810,"x_min":0,"x_max":0,"o":"m 421 -18 b 56 354 208 -18 56 140 b 421 726 56 568 213 726 b 742 518 554 726 685 661 l 647 469 b 421 624 621 547 538 624 b 169 354 274 624 169 511 b 421 85 169 192 279 85 b 664 254 524 85 622 139 l 754 210 b 421 -18 696 47 564 -18 m 324 1003 l 513 1003 l 607 797 l 504 797 l 418 981 l 333 797 l 229 797 "},"ċ":{"ha":810,"x_min":0,"x_max":0,"o":"m 421 -18 b 56 354 208 -18 56 140 b 421 726 56 568 213 726 b 742 518 554 726 685 661 l 647 469 b 421 624 621 547 538 624 b 169 354 274 624 169 511 b 421 85 169 192 279 85 b 664 254 524 85 622 139 l 754 210 b 421 -18 696 47 564 -18 m 364 989 l 481 989 l 481 846 l 364 846 "},"d":{"ha":865,"x_min":0,"x_max":0,"o":"m 383 -18 b 56 353 201 -18 56 139 b 383 726 56 568 197 726 b 657 469 533 726 635 626 l 657 972 l 768 972 l 768 0 l 657 0 l 657 250 b 383 -18 635 110 563 -18 m 169 353 b 417 82 169 186 275 82 b 661 353 567 82 661 204 b 414 626 661 529 550 626 b 169 353 275 626 169 515 "},"ð":{"ha":814,"x_min":0,"x_max":0,"o":"m 401 -18 b 56 344 189 -18 56 143 b 365 697 56 565 210 697 b 624 503 521 697 600 594 b 411 808 603 608 521 717 l 201 736 l 201 821 l 333 867 b 140 972 274 908 207 944 l 308 972 b 432 901 353 950 393 926 l 635 972 l 635 886 l 513 843 b 758 372 664 719 758 560 b 401 -18 758 157 642 -18 m 168 344 b 403 81 168 200 254 81 b 646 344 571 81 646 210 b 411 604 646 493 554 604 b 168 344 251 604 168 486 "},"ď":{"ha":886,"x_min":0,"x_max":0,"o":"m 383 -18 b 56 353 201 -18 56 139 b 383 726 56 568 197 726 b 657 469 533 726 635 626 l 657 972 l 768 972 l 768 0 l 657 0 l 657 250 b 383 -18 635 110 563 -18 m 169 353 b 417 82 169 186 275 82 b 661 353 567 82 661 204 b 414 626 661 529 550 626 b 169 353 275 626 169 515 m 847 972 l 950 972 l 917 721 l 825 721 "},"đ":{"ha":888,"x_min":0,"x_max":0,"o":"m 438 888 l 657 888 l 657 972 l 768 972 l 768 888 l 860 888 l 860 799 l 768 799 l 768 0 l 657 0 l 657 250 b 383 -18 635 110 563 -18 b 56 353 201 -18 56 139 b 383 726 56 568 197 726 b 657 469 533 726 635 626 l 657 799 l 438 799 m 169 353 b 417 82 169 186 275 82 b 661 353 567 82 661 204 b 414 626 661 529 550 626 b 169 353 275 626 169 515 "},"e":{"ha":796,"x_min":0,"x_max":0,"o":"m 408 -18 b 56 361 194 -18 56 142 b 407 726 56 588 218 726 b 740 368 621 726 740 564 b 738 319 740 350 739 332 l 167 319 b 408 82 181 178 269 82 b 632 201 506 82 583 121 l 715 149 b 408 -18 661 49 549 -18 m 632 417 b 407 629 632 535 535 629 b 168 417 269 629 188 535 "},"é":{"ha":796,"x_min":0,"x_max":0,"o":"m 408 -18 b 56 361 194 -18 56 142 b 407 726 56 588 218 726 b 740 368 621 726 740 564 b 738 319 740 350 739 332 l 167 319 b 408 82 181 178 269 82 b 632 201 506 82 583 121 l 715 149 b 408 -18 661 49 549 -18 m 632 417 b 407 629 632 535 535 629 b 168 417 269 629 188 535 m 414 1004 l 538 1004 l 432 799 l 344 799 "},"ĕ":{"ha":796,"x_min":0,"x_max":0,"o":"m 408 -18 b 56 361 194 -18 56 142 b 407 726 56 588 218 726 b 740 368 621 726 740 564 b 738 319 740 350 739 332 l 167 319 b 408 82 181 178 269 82 b 632 201 506 82 583 121 l 715 149 b 408 -18 661 49 549 -18 m 632 417 b 407 629 632 535 535 629 b 168 417 269 629 188 535 m 218 1000 l 310 1000 l 310 988 b 401 900 310 939 340 900 b 493 988 461 900 493 940 l 493 1000 l 585 1000 l 585 988 b 401 811 585 883 514 811 b 218 988 289 811 218 883 "},"ě":{"ha":796,"x_min":0,"x_max":0,"o":"m 408 -18 b 56 361 194 -18 56 142 b 407 726 56 588 218 726 b 740 368 621 726 740 564 b 738 319 740 350 739 332 l 167 319 b 408 82 181 178 269 82 b 632 201 506 82 583 121 l 715 149 b 408 -18 661 49 549 -18 m 632 417 b 407 629 632 535 535 629 b 168 417 269 629 188 535 m 315 1006 l 401 822 l 486 1006 l 590 1006 l 496 800 l 307 800 l 213 1006 "},"ê":{"ha":796,"x_min":0,"x_max":0,"o":"m 408 -18 b 56 361 194 -18 56 142 b 407 726 56 588 218 726 b 740 368 621 726 740 564 b 738 319 740 350 739 332 l 167 319 b 408 82 181 178 269 82 b 632 201 506 82 583 121 l 715 149 b 408 -18 661 49 549 -18 m 632 417 b 407 629 632 535 535 629 b 168 417 269 629 188 535 m 306 1004 l 494 1004 l 589 799 l 486 799 l 400 982 l 315 799 l 211 799 "},"ë":{"ha":796,"x_min":0,"x_max":0,"o":"m 408 -18 b 56 361 194 -18 56 142 b 407 726 56 588 218 726 b 740 368 621 726 740 564 b 738 319 740 350 739 332 l 167 319 b 408 82 181 178 269 82 b 632 201 506 82 583 121 l 715 149 b 408 -18 661 49 549 -18 m 632 417 b 407 629 632 535 535 629 b 168 417 269 629 188 535 m 219 990 l 344 990 l 344 854 l 219 854 m 450 990 l 575 990 l 575 854 l 450 854 "},"ė":{"ha":796,"x_min":0,"x_max":0,"o":"m 408 -18 b 56 361 194 -18 56 142 b 407 726 56 588 218 726 b 740 368 621 726 740 564 b 738 319 740 350 739 332 l 167 319 b 408 82 181 178 269 82 b 632 201 506 82 583 121 l 715 149 b 408 -18 661 49 549 -18 m 632 417 b 407 629 632 535 535 629 b 168 417 269 629 188 535 m 346 990 l 463 990 l 463 847 l 346 847 "},"è":{"ha":796,"x_min":0,"x_max":0,"o":"m 408 -18 b 56 361 194 -18 56 142 b 407 726 56 588 218 726 b 740 368 621 726 740 564 b 738 319 740 350 739 332 l 167 319 b 408 82 181 178 269 82 b 632 201 506 82 583 121 l 715 149 b 408 -18 661 49 549 -18 m 632 417 b 407 629 632 535 535 629 b 168 417 269 629 188 535 m 393 1004 l 463 799 l 375 799 l 269 1004 "},"ē":{"ha":796,"x_min":0,"x_max":0,"o":"m 408 -18 b 56 361 194 -18 56 142 b 407 726 56 588 218 726 b 740 368 621 726 740 564 b 738 319 740 350 739 332 l 167 319 b 408 82 181 178 269 82 b 632 201 506 82 583 121 l 715 149 b 408 -18 661 49 549 -18 m 632 417 b 407 629 632 535 535 629 b 168 417 269 629 188 535 m 233 947 l 569 947 l 569 847 l 233 847 "},"ę":{"ha":796,"x_min":0,"x_max":0,"o":"m 503 -285 b 378 -168 438 -285 378 -243 b 417 -75 378 -131 390 -104 l 469 -14 b 408 -18 450 -17 429 -18 b 56 361 194 -18 56 142 b 407 726 56 588 218 726 b 740 368 621 726 740 564 b 738 319 740 350 739 332 l 167 319 b 408 82 181 178 269 82 b 632 201 506 82 583 121 l 715 149 l 493 -114 b 476 -153 482 -126 476 -140 b 524 -199 476 -179 496 -199 b 563 -190 539 -199 550 -196 l 585 -267 b 503 -285 565 -278 533 -285 m 632 417 b 407 629 632 535 535 629 b 168 417 269 629 188 535 "},"ẽ":{"ha":796,"x_min":0,"x_max":0,"o":"m 408 -18 b 56 361 194 -18 56 142 b 407 726 56 588 218 726 b 740 368 621 726 740 564 b 738 319 740 350 739 332 l 167 319 b 408 82 181 178 269 82 b 632 201 506 82 583 121 l 715 149 b 408 -18 661 49 549 -18 m 632 417 b 407 629 632 535 535 629 b 168 417 269 629 188 535 m 185 847 b 306 974 188 922 235 974 b 393 944 340 974 369 958 l 428 924 b 476 904 444 914 461 904 b 528 965 507 904 528 926 l 528 974 l 607 939 b 486 813 604 864 557 813 b 400 842 451 813 426 825 l 367 863 b 315 882 351 872 336 882 b 264 818 285 882 264 857 l 264 810 l 185 847 "},"f":{"ha":547,"x_min":0,"x_max":0,"o":"m 178 611 l 35 611 l 35 708 l 246 708 b 111 832 188 708 111 746 b 285 972 111 907 168 972 l 446 972 l 446 875 l 304 875 b 206 793 246 875 206 843 b 311 708 206 739 250 708 l 499 708 l 499 611 l 289 611 l 289 0 l 178 0 "},"g":{"ha":804,"x_min":0,"x_max":0,"o":"m 369 -310 b 28 -110 169 -310 28 -237 b 214 39 28 -32 85 39 l 235 39 b 108 147 144 51 108 96 b 239 249 108 197 151 246 b 89 476 147 286 89 368 b 365 726 89 629 210 726 b 496 697 421 726 474 708 l 724 722 l 724 611 l 474 611 b 635 450 593 600 635 518 b 365 225 635 313 514 225 b 246 246 322 225 282 232 b 215 189 228 233 215 211 b 293 131 215 149 254 131 l 489 131 b 735 -76 638 131 735 51 b 369 -310 735 -272 517 -310 m 138 -78 b 369 -210 138 -181 254 -210 b 622 -76 500 -210 622 -181 b 471 32 622 -14 571 32 l 264 32 b 138 -78 186 32 138 -15 m 196 476 b 365 318 196 385 263 318 b 535 476 468 318 535 385 b 365 633 535 565 468 633 b 196 476 263 633 196 565 "},"ğ":{"ha":804,"x_min":0,"x_max":0,"o":"m 369 -310 b 28 -110 169 -310 28 -237 b 214 39 28 -32 85 39 l 235 39 b 108 147 144 51 108 96 b 239 249 108 197 151 246 b 89 476 147 286 89 368 b 365 726 89 629 210 726 b 496 697 421 726 474 708 l 724 722 l 724 611 l 474 611 b 635 450 593 600 635 518 b 365 225 635 313 514 225 b 246 246 322 225 282 232 b 215 189 228 233 215 211 b 293 131 215 149 254 131 l 489 131 b 735 -76 638 131 735 51 b 369 -310 735 -272 517 -310 m 138 -78 b 369 -210 138 -181 254 -210 b 622 -76 500 -210 622 -181 b 471 32 622 -14 571 32 l 264 32 b 138 -78 186 32 138 -15 m 192 1000 l 283 1000 l 283 988 b 375 900 283 939 314 900 b 467 988 435 900 467 940 l 467 1000 l 558 1000 l 558 988 b 375 811 558 883 488 811 b 192 988 263 811 192 883 m 196 476 b 365 318 196 385 263 318 b 535 476 468 318 535 385 b 365 633 535 565 468 633 b 196 476 263 633 196 565 "},"ǧ":{"ha":804,"x_min":0,"x_max":0,"o":"m 369 -310 b 28 -110 169 -310 28 -237 b 214 39 28 -32 85 39 l 235 39 b 108 147 144 51 108 96 b 239 249 108 197 151 246 b 89 476 147 286 89 368 b 365 726 89 629 210 726 b 496 697 421 726 474 708 l 724 722 l 724 611 l 474 611 b 635 450 593 600 635 518 b 365 225 635 313 514 225 b 246 246 322 225 282 232 b 215 189 228 233 215 211 b 293 131 215 149 254 131 l 489 131 b 735 -76 638 131 735 51 b 369 -310 735 -272 517 -310 m 138 -78 b 369 -210 138 -181 254 -210 b 622 -76 500 -210 622 -181 b 471 32 622 -14 571 32 l 264 32 b 138 -78 186 32 138 -15 m 289 1006 l 375 822 l 460 1006 l 564 1006 l 469 800 l 281 800 l 186 1006 m 196 476 b 365 318 196 385 263 318 b 535 476 468 318 535 385 b 365 633 535 565 468 633 b 196 476 263 633 196 565 "},"ĝ":{"ha":804,"x_min":0,"x_max":0,"o":"m 369 -310 b 28 -110 169 -310 28 -237 b 214 39 28 -32 85 39 l 235 39 b 108 147 144 51 108 96 b 239 249 108 197 151 246 b 89 476 147 286 89 368 b 365 726 89 629 210 726 b 496 697 421 726 474 708 l 724 722 l 724 611 l 474 611 b 635 450 593 600 635 518 b 365 225 635 313 514 225 b 246 246 322 225 282 232 b 215 189 228 233 215 211 b 293 131 215 149 254 131 l 489 131 b 735 -76 638 131 735 51 b 369 -310 735 -272 517 -310 m 138 -78 b 369 -210 138 -181 254 -210 b 622 -76 500 -210 622 -181 b 471 32 622 -14 571 32 l 264 32 b 138 -78 186 32 138 -15 m 279 1004 l 468 1004 l 563 799 l 460 799 l 374 982 l 289 799 l 185 799 m 196 476 b 365 318 196 385 263 318 b 535 476 468 318 535 385 b 365 633 535 565 468 633 b 196 476 263 633 196 565 "},"ģ":{"ha":804,"x_min":0,"x_max":0,"o":"m 369 -310 b 28 -110 169 -310 28 -237 b 214 39 28 -32 85 39 l 235 39 b 108 147 144 51 108 96 b 239 249 108 197 151 246 b 89 476 147 286 89 368 b 365 726 89 629 210 726 b 496 697 421 726 474 708 l 724 722 l 724 611 l 474 611 b 635 450 593 600 635 518 b 365 225 635 313 514 225 b 246 246 322 225 282 232 b 215 189 228 233 215 211 b 293 131 215 149 254 131 l 489 131 b 735 -76 638 131 735 51 b 369 -310 735 -272 517 -310 m 138 -78 b 369 -210 138 -181 254 -210 b 622 -76 500 -210 622 -181 b 471 32 622 -14 571 32 l 264 32 b 138 -78 186 32 138 -15 m 196 476 b 365 318 196 385 263 318 b 535 476 468 318 535 385 b 365 633 535 565 468 633 b 196 476 263 633 196 565 m 307 925 b 429 1071 307 1006 358 1056 l 449 1004 b 385 929 413 994 385 978 l 385 925 l 432 925 l 432 800 l 307 800 "},"ġ":{"ha":804,"x_min":0,"x_max":0,"o":"m 369 -310 b 28 -110 169 -310 28 -237 b 214 39 28 -32 85 39 l 235 39 b 108 147 144 51 108 96 b 239 249 108 197 151 246 b 89 476 147 286 89 368 b 365 726 89 629 210 726 b 496 697 421 726 474 708 l 724 722 l 724 611 l 474 611 b 635 450 593 600 635 518 b 365 225 635 313 514 225 b 246 246 322 225 282 232 b 215 189 228 233 215 211 b 293 131 215 149 254 131 l 489 131 b 735 -76 638 131 735 51 b 369 -310 735 -272 517 -310 m 138 -78 b 369 -210 138 -181 254 -210 b 622 -76 500 -210 622 -181 b 471 32 622 -14 571 32 l 264 32 b 138 -78 186 32 138 -15 m 196 476 b 365 318 196 385 263 318 b 535 476 468 318 535 385 b 365 633 535 565 468 633 b 196 476 263 633 196 565 m 319 990 l 436 990 l 436 847 l 319 847 "},"h":{"ha":817,"x_min":0,"x_max":0,"o":"m 111 972 l 222 972 l 222 490 b 463 726 229 593 304 726 b 719 460 631 726 719 601 l 719 0 l 608 0 l 608 438 b 424 624 608 549 525 624 b 222 417 304 624 222 536 l 222 0 l 111 0 "},"ħ":{"ha":817,"x_min":0,"x_max":0,"o":"m 21 888 l 111 888 l 111 972 l 222 972 l 222 888 l 443 888 l 443 799 l 222 799 l 222 490 b 463 726 229 593 304 726 b 719 460 631 726 719 601 l 719 0 l 608 0 l 608 438 b 424 624 608 549 525 624 b 222 417 304 624 222 536 l 222 0 l 111 0 l 111 799 l 21 799 "},"ĥ":{"ha":817,"x_min":0,"x_max":0,"o":"m 111 972 l 222 972 l 222 490 b 463 726 229 593 304 726 b 719 460 631 726 719 601 l 719 0 l 608 0 l 608 438 b 424 624 608 549 525 624 b 222 417 304 624 222 536 l 222 0 l 111 0 m 72 1226 l 261 1226 l 356 1021 l 253 1021 l 167 1204 l 82 1021 l -22 1021 "},"i":{"ha":333,"x_min":0,"x_max":0,"o":"m 111 708 l 222 708 l 222 0 l 111 0 m 108 972 l 225 972 l 225 829 l 108 829 "},"ı":{"ha":319,"x_min":0,"x_max":0,"o":"m 111 708 l 222 708 l 222 0 l 111 0 "},"í":{"ha":319,"x_min":0,"x_max":0,"o":"m 111 708 l 222 708 l 222 0 l 111 0 m 176 1004 l 300 1004 l 194 799 l 107 799 "},"ĭ":{"ha":319,"x_min":0,"x_max":0,"o":"m 111 708 l 222 708 l 222 0 l 111 0 m -19 1000 l 72 1000 l 72 988 b 164 900 72 939 103 900 b 256 988 224 900 256 940 l 256 1000 l 347 1000 l 347 988 b 164 811 347 883 276 811 b -19 988 51 811 -19 883 "},"ǐ":{"ha":319,"x_min":0,"x_max":0,"o":"m 111 708 l 222 708 l 222 0 l 111 0 m 78 1006 l 164 822 l 249 1006 l 353 1006 l 258 800 l 69 800 l -25 1006 "},"î":{"ha":319,"x_min":0,"x_max":0,"o":"m 111 708 l 222 708 l 222 0 l 111 0 m 68 1004 l 257 1004 l 351 799 l 249 799 l 163 982 l 78 799 l -26 799 "},"ï":{"ha":319,"x_min":0,"x_max":0,"o":"m 111 708 l 222 708 l 222 0 l 111 0 m -18 990 l 107 990 l 107 854 l -18 854 m 213 990 l 338 990 l 338 854 l 213 854 "},"ì":{"ha":319,"x_min":0,"x_max":0,"o":"m 111 708 l 222 708 l 222 0 l 111 0 m 156 1004 l 225 799 l 138 799 l 32 1004 "},"ĳ":{"ha":661,"x_min":0,"x_max":0,"o":"m 111 708 l 222 708 l 222 0 l 111 0 m 108 972 l 225 972 l 225 829 l 108 829 m 319 -189 l 361 -189 b 439 -115 404 -189 439 -172 l 439 708 l 550 708 l 550 -115 b 378 -292 550 -232 472 -292 l 319 -292 m 435 972 l 551 972 l 551 829 l 435 829 "},"ī":{"ha":319,"x_min":0,"x_max":0,"o":"m 111 708 l 222 708 l 222 0 l 111 0 m -4 947 l 332 947 l 332 847 l -4 847 "},"į":{"ha":336,"x_min":0,"x_max":0,"o":"m 114 708 l 225 708 l 225 0 l 133 -114 b 117 -153 122 -126 117 -140 b 164 -199 117 -179 136 -199 b 203 -190 179 -199 190 -196 l 225 -267 b 143 -285 206 -278 174 -285 b 18 -168 78 -285 18 -243 b 54 -75 18 -131 29 -107 l 114 0 m 111 990 l 228 990 l 228 847 l 111 847 "},"ĩ":{"ha":319,"x_min":0,"x_max":0,"o":"m 111 708 l 222 708 l 222 0 l 111 0 m -53 847 b 68 974 -50 922 -3 974 b 156 944 103 974 132 958 l 190 924 b 239 904 207 914 224 904 b 290 965 269 904 290 926 l 290 974 l 369 939 b 249 813 367 864 319 813 b 163 842 214 813 189 825 l 129 863 b 78 882 114 872 99 882 b 26 818 47 882 26 857 l 26 810 l -53 847 "},"j":{"ha":328,"x_min":0,"x_max":0,"o":"m -14 -189 l 28 -189 b 106 -115 71 -189 106 -172 l 106 708 l 217 708 l 217 -115 b 44 -292 217 -232 139 -292 l -14 -292 m 101 972 l 218 972 l 218 829 l 101 829 "},"ȷ":{"ha":340,"x_min":0,"x_max":0,"o":"m 0 -189 l 42 -189 b 119 -115 85 -189 119 -172 l 119 708 l 231 708 l 231 -115 b 58 -292 231 -232 153 -292 l 0 -292 "},"ĵ":{"ha":340,"x_min":0,"x_max":0,"o":"m 0 -189 l 42 -189 b 119 -115 85 -189 119 -172 l 119 708 l 231 708 l 231 -115 b 58 -292 231 -232 153 -292 l 0 -292 m 78 1004 l 267 1004 l 361 799 l 258 799 l 172 982 l 88 799 l -17 799 "},"k":{"ha":761,"x_min":0,"x_max":0,"o":"m 111 972 l 222 972 l 222 138 b 367 517 222 342 274 424 l 561 708 l 708 708 l 432 438 l 719 0 l 588 0 l 353 360 l 347 354 b 222 29 307 314 222 232 l 222 0 l 111 0 "},"ķ":{"ha":761,"x_min":0,"x_max":0,"o":"m 111 972 l 222 972 l 222 138 b 367 517 222 342 274 424 l 561 708 l 708 708 l 432 438 l 719 0 l 588 0 l 353 360 l 347 354 b 222 29 307 314 222 232 l 222 0 l 111 0 m 328 -267 b 392 -192 364 -257 392 -240 l 392 -187 l 344 -187 l 344 -62 l 469 -62 l 469 -187 b 347 -333 469 -268 418 -318 l 328 -267 "},"ĸ":{"ha":760,"x_min":0,"x_max":0,"o":"m 111 708 l 221 708 l 221 138 b 371 517 221 329 276 425 l 567 708 l 704 708 l 429 439 l 718 0 l 586 0 l 350 361 l 343 354 b 221 29 303 314 221 232 l 221 0 l 111 0 "},"l":{"ha":306,"x_min":0,"x_max":0,"o":"m 97 972 l 208 972 l 208 0 l 97 0 "},"ĺ":{"ha":306,"x_min":0,"x_max":0,"o":"m 97 972 l 208 972 l 208 0 l 97 0 m 167 1268 l 290 1268 l 185 1063 l 97 1063 "},"ľ":{"ha":393,"x_min":0,"x_max":0,"o":"m 97 972 l 208 972 l 208 0 l 97 0 m 325 972 l 428 972 l 394 721 l 303 721 "},"ļ":{"ha":306,"x_min":0,"x_max":0,"o":"m 97 972 l 208 972 l 208 0 l 97 0 m 74 -267 b 138 -192 110 -257 138 -240 l 138 -187 l 90 -187 l 90 -62 l 215 -62 l 215 -187 b 93 -333 215 -268 164 -318 l 74 -267 "},"ŀ":{"ha":551,"x_min":0,"x_max":0,"o":"m 97 972 l 208 972 l 208 0 l 97 0 m 325 647 l 476 647 l 476 476 l 325 476 "},"ł":{"ha":433,"x_min":0,"x_max":0,"o":"m 32 544 l 118 594 l 118 972 l 229 972 l 229 660 l 385 751 l 385 636 l 229 544 l 229 0 l 118 0 l 118 479 l 32 429 "},"m":{"ha":1271,"x_min":0,"x_max":0,"o":"m 111 708 l 222 708 l 222 490 b 451 726 222 624 308 726 b 699 490 565 726 676 668 b 925 726 707 636 800 726 b 1174 460 1086 726 1174 606 l 1174 0 l 1063 0 l 1063 438 b 883 624 1063 554 990 624 b 699 417 782 624 699 551 l 699 0 l 588 0 l 588 439 b 404 624 588 554 506 624 b 222 417 299 624 222 539 l 222 0 l 111 0 "},"n":{"ha":817,"x_min":0,"x_max":0,"o":"m 111 708 l 222 708 l 222 490 b 463 726 222 593 304 726 b 719 460 631 726 719 601 l 719 0 l 608 0 l 608 438 b 424 624 608 549 525 624 b 222 417 304 624 222 536 l 222 0 l 111 0 "},"ń":{"ha":817,"x_min":0,"x_max":0,"o":"m 111 708 l 222 708 l 222 490 b 463 726 222 593 304 726 b 719 460 631 726 719 601 l 719 0 l 608 0 l 608 438 b 424 624 608 549 525 624 b 222 417 304 624 222 536 l 222 0 l 111 0 m 449 1004 l 572 1004 l 467 799 l 379 799 "},"ŉ":{"ha":817,"x_min":0,"x_max":0,"o":"m 111 708 l 222 708 l 222 490 b 463 726 222 593 304 726 b 719 460 631 726 719 601 l 719 0 l 608 0 l 608 438 b 424 624 608 549 525 624 b 222 417 304 624 222 536 l 222 0 l 111 0 m -11 782 b 53 857 25 792 53 808 l 53 861 l 6 861 l 6 986 l 131 986 l 131 861 b 8 715 131 781 79 731 l -11 782 "},"ň":{"ha":817,"x_min":0,"x_max":0,"o":"m 111 708 l 222 708 l 222 490 b 463 726 222 593 304 726 b 719 460 631 726 719 601 l 719 0 l 608 0 l 608 438 b 424 624 608 549 525 624 b 222 417 304 624 222 536 l 222 0 l 111 0 m 350 1006 l 436 822 l 521 1006 l 625 1006 l 531 800 l 342 800 l 247 1006 "},"ņ":{"ha":817,"x_min":0,"x_max":0,"o":"m 111 708 l 222 708 l 222 490 b 463 726 222 593 304 726 b 719 460 631 726 719 601 l 719 0 l 608 0 l 608 438 b 424 624 608 549 525 624 b 222 417 304 624 222 536 l 222 0 l 111 0 m 343 -267 b 407 -192 379 -257 407 -240 l 407 -187 l 360 -187 l 360 -62 l 485 -62 l 485 -187 b 363 -333 485 -268 433 -318 l 343 -267 "},"ñ":{"ha":817,"x_min":0,"x_max":0,"o":"m 111 708 l 222 708 l 222 490 b 463 726 222 593 304 726 b 719 460 631 726 719 601 l 719 0 l 608 0 l 608 438 b 424 624 608 549 525 624 b 222 417 304 624 222 536 l 222 0 l 111 0 m 219 847 b 340 974 222 922 269 974 b 428 944 375 974 404 958 l 463 924 b 511 904 479 914 496 904 b 563 965 542 904 563 926 l 563 974 l 642 939 b 521 813 639 864 592 813 b 435 842 486 813 461 825 l 401 863 b 350 882 386 872 371 882 b 299 818 319 882 299 857 l 299 810 l 219 847 "},"ŋ":{"ha":817,"x_min":0,"x_max":0,"o":"m 435 -219 l 474 -219 b 608 -85 564 -219 608 -162 l 608 438 b 424 624 608 549 525 624 b 222 417 304 624 222 536 l 222 0 l 111 0 l 111 708 l 222 708 l 222 490 b 463 726 222 593 304 726 b 719 460 631 726 719 601 l 719 -86 b 472 -319 719 -232 618 -319 l 435 -319 "},"o":{"ha":847,"x_min":0,"x_max":0,"o":"m 424 -18 b 56 354 210 -18 56 135 b 424 726 56 572 210 726 b 792 354 638 726 792 572 b 424 -18 792 135 638 -18 m 169 354 b 424 82 169 194 275 82 b 678 354 572 82 678 194 b 424 626 678 510 572 626 b 169 354 275 626 169 510 "},"ó":{"ha":847,"x_min":0,"x_max":0,"o":"m 424 -18 b 56 354 210 -18 56 135 b 424 726 56 572 210 726 b 792 354 638 726 792 572 b 424 -18 792 135 638 -18 m 169 354 b 424 82 169 194 275 82 b 678 354 572 82 678 194 b 424 626 678 510 572 626 b 169 354 275 626 169 510 m 436 1004 l 560 1004 l 454 799 l 367 799 "},"ŏ":{"ha":847,"x_min":0,"x_max":0,"o":"m 424 -18 b 56 354 210 -18 56 135 b 424 726 56 572 210 726 b 792 354 638 726 792 572 b 424 -18 792 135 638 -18 m 169 354 b 424 82 169 194 275 82 b 678 354 572 82 678 194 b 424 626 678 510 572 626 b 169 354 275 626 169 510 m 240 1000 l 332 1000 l 332 988 b 424 900 332 939 363 900 b 515 988 483 900 515 940 l 515 1000 l 607 1000 l 607 988 b 424 811 607 883 536 811 b 240 988 311 811 240 883 "},"ǒ":{"ha":847,"x_min":0,"x_max":0,"o":"m 424 -18 b 56 354 210 -18 56 135 b 424 726 56 572 210 726 b 792 354 638 726 792 572 b 424 -18 792 135 638 -18 m 169 354 b 424 82 169 194 275 82 b 678 354 572 82 678 194 b 424 626 678 510 572 626 b 169 354 275 626 169 510 m 338 1006 l 424 822 l 508 1006 l 613 1006 l 518 800 l 329 800 l 235 1006 "},"ô":{"ha":847,"x_min":0,"x_max":0,"o":"m 424 -18 b 56 354 210 -18 56 135 b 424 726 56 572 210 726 b 792 354 638 726 792 572 b 424 -18 792 135 638 -18 m 169 354 b 424 82 169 194 275 82 b 678 354 572 82 678 194 b 424 626 678 510 572 626 b 169 354 275 626 169 510 m 328 1004 l 517 1004 l 611 799 l 508 799 l 422 982 l 338 799 l 233 799 "},"ö":{"ha":847,"x_min":0,"x_max":0,"o":"m 424 -18 b 56 354 210 -18 56 135 b 424 726 56 572 210 726 b 792 354 638 726 792 572 b 424 -18 792 135 638 -18 m 169 354 b 424 82 169 194 275 82 b 678 354 572 82 678 194 b 424 626 678 510 572 626 b 169 354 275 626 169 510 m 242 990 l 367 990 l 367 854 l 242 854 m 472 990 l 597 990 l 597 854 l 472 854 "},"ò":{"ha":847,"x_min":0,"x_max":0,"o":"m 424 -18 b 56 354 210 -18 56 135 b 424 726 56 572 210 726 b 792 354 638 726 792 572 b 424 -18 792 135 638 -18 m 169 354 b 424 82 169 194 275 82 b 678 354 572 82 678 194 b 424 626 678 510 572 626 b 169 354 275 626 169 510 m 415 1004 l 485 799 l 397 799 l 292 1004 "},"ő":{"ha":847,"x_min":0,"x_max":0,"o":"m 424 -18 b 56 354 210 -18 56 135 b 424 726 56 572 210 726 b 792 354 638 726 792 572 b 424 -18 792 135 638 -18 m 169 354 b 424 82 169 194 275 82 b 678 354 572 82 678 194 b 424 626 678 510 572 626 b 169 354 275 626 169 510 m 346 1018 l 468 1018 l 351 799 l 263 799 m 547 1018 l 669 1018 l 553 799 l 464 799 "},"ō":{"ha":847,"x_min":0,"x_max":0,"o":"m 424 -18 b 56 354 210 -18 56 135 b 424 726 56 572 210 726 b 792 354 638 726 792 572 b 424 -18 792 135 638 -18 m 169 354 b 424 82 169 194 275 82 b 678 354 572 82 678 194 b 424 626 678 510 572 626 b 169 354 275 626 169 510 m 256 947 l 592 947 l 592 847 l 256 847 "},"ø":{"ha":847,"x_min":0,"x_max":0,"o":"m 101 -83 l 188 60 b 56 354 106 126 56 229 b 424 726 56 572 210 726 b 574 697 478 726 529 717 l 635 799 l 749 799 l 658 649 b 792 354 742 583 792 479 b 424 -18 792 135 638 -18 b 271 11 368 -18 317 -8 l 214 -83 m 169 354 b 244 154 169 272 197 203 l 519 608 b 424 626 490 619 458 626 b 169 354 275 626 169 510 m 325 100 b 424 82 356 89 388 82 b 678 354 572 82 678 194 b 600 554 678 435 649 506 l 325 100 "},"õ":{"ha":847,"x_min":0,"x_max":0,"o":"m 424 -18 b 56 354 210 -18 56 135 b 424 726 56 572 210 726 b 792 354 638 726 792 572 b 424 -18 792 135 638 -18 m 169 354 b 424 82 169 194 275 82 b 678 354 572 82 678 194 b 424 626 678 510 572 626 b 169 354 275 626 169 510 m 207 847 b 328 974 210 922 257 974 b 415 944 363 974 392 958 l 450 924 b 499 904 467 914 483 904 b 550 965 529 904 550 926 l 550 974 l 629 939 b 508 813 626 864 579 813 b 422 842 474 813 449 825 l 389 863 b 338 882 374 872 358 882 b 286 818 307 882 286 857 l 286 810 l 207 847 "},"œ":{"ha":1328,"x_min":0,"x_max":0,"o":"m 388 -18 b 56 354 200 -18 56 135 b 388 726 56 572 200 726 b 686 408 564 726 686 578 b 969 726 686 606 814 726 b 1271 368 1163 726 1282 564 l 1268 319 l 701 319 b 943 82 715 176 797 82 b 1163 201 1039 82 1114 121 l 1246 149 b 958 -18 1192 49 1097 -18 b 686 300 835 -18 686 92 b 388 -18 686 149 564 -18 m 169 354 b 424 82 169 192 275 82 b 678 354 572 82 678 192 b 424 626 678 513 572 626 b 169 354 275 626 169 513 m 1163 417 b 939 629 1163 540 1069 629 b 703 417 811 629 719 547 "},"p":{"ha":879,"x_min":0,"x_max":0,"o":"m 463 626 b 218 356 313 626 218 504 b 465 82 218 179 329 82 b 710 356 604 82 710 193 b 463 626 710 522 604 626 m 111 708 l 222 708 l 222 458 b 504 726 244 599 329 726 b 824 356 686 726 824 569 b 504 -18 824 140 690 -18 b 222 239 360 -18 244 82 l 222 -292 l 111 -292 "},"þ":{"ha":876,"x_min":0,"x_max":0,"o":"m 461 626 b 217 356 311 626 217 504 b 464 82 217 179 328 82 b 708 356 603 82 708 193 b 461 626 708 522 603 626 m 111 972 l 221 972 l 221 458 b 503 726 243 599 328 726 b 821 356 685 726 821 569 b 503 -18 821 140 689 -18 b 221 239 358 -18 243 82 l 221 -292 l 111 -292 "},"q":{"ha":863,"x_min":0,"x_max":0,"o":"m 415 626 b 168 356 274 626 168 522 b 413 82 168 193 274 82 b 660 356 549 82 660 179 b 415 626 660 504 565 626 m 56 356 b 379 726 56 569 197 726 b 656 458 554 726 633 599 l 656 708 l 765 708 l 765 -292 l 656 -292 l 656 239 b 379 -18 633 82 524 -18 b 56 356 193 -18 56 140 "},"r":{"ha":528,"x_min":0,"x_max":0,"o":"m 111 708 l 221 708 l 221 425 b 486 715 221 589 315 715 l 486 596 l 471 596 b 222 344 297 596 222 479 l 222 0 l 111 0 "},"ŕ":{"ha":528,"x_min":0,"x_max":0,"o":"m 111 708 l 221 708 l 221 425 b 486 715 221 589 315 715 l 486 596 l 471 596 b 222 344 297 596 222 479 l 222 0 l 111 0 m 324 1004 l 447 1004 l 342 799 l 254 799 "},"ř":{"ha":528,"x_min":0,"x_max":0,"o":"m 111 708 l 221 708 l 221 425 b 486 715 221 589 315 715 l 486 596 l 471 596 b 222 344 297 596 222 479 l 222 0 l 111 0 m 225 1006 l 311 822 l 396 1006 l 500 1006 l 406 800 l 217 800 l 122 1006 "},"ŗ":{"ha":528,"x_min":0,"x_max":0,"o":"m 111 708 l 221 708 l 221 425 b 486 715 221 589 315 715 l 486 596 l 471 596 b 222 344 297 596 222 479 l 222 0 l 111 0 m 90 -267 b 154 -192 126 -257 154 -240 l 154 -187 l 107 -187 l 107 -62 l 232 -62 l 232 -187 b 110 -333 232 -268 181 -318 l 90 -267 "},"s":{"ha":733,"x_min":0,"x_max":0,"o":"m 353 -18 b 56 197 186 -18 83 74 l 158 225 b 358 81 181 129 261 81 b 536 196 472 81 536 131 b 419 304 536 251 499 289 l 301 326 b 106 524 196 346 106 397 b 364 726 106 636 200 726 b 640 525 506 726 615 651 l 540 497 b 364 629 529 578 458 629 b 210 524 263 629 210 582 b 328 422 210 468 250 438 l 447 399 b 643 196 558 376 643 315 b 353 -18 643 69 526 -18 "},"ś":{"ha":733,"x_min":0,"x_max":0,"o":"m 353 -18 b 56 197 186 -18 83 74 l 158 225 b 358 81 181 129 261 81 b 536 196 472 81 536 131 b 419 304 536 251 499 289 l 301 326 b 106 524 196 346 106 397 b 364 726 106 636 200 726 b 640 525 506 726 615 651 l 540 497 b 364 629 529 578 458 629 b 210 524 263 629 210 582 b 328 422 210 468 250 438 l 447 399 b 643 196 558 376 643 315 b 353 -18 643 69 526 -18 m 388 1004 l 511 1004 l 406 799 l 318 799 "},"š":{"ha":733,"x_min":0,"x_max":0,"o":"m 353 -18 b 56 197 186 -18 83 74 l 158 225 b 358 81 181 129 261 81 b 536 196 472 81 536 131 b 419 304 536 251 499 289 l 301 326 b 106 524 196 346 106 397 b 364 726 106 636 200 726 b 640 525 506 726 615 651 l 540 497 b 364 629 529 578 458 629 b 210 524 263 629 210 582 b 328 422 210 468 250 438 l 447 399 b 643 196 558 376 643 315 b 353 -18 643 69 526 -18 m 289 1006 l 375 822 l 460 1006 l 564 1006 l 469 800 l 281 800 l 186 1006 "},"ş":{"ha":733,"x_min":0,"x_max":0,"o":"m 382 -285 b 283 -229 339 -285 303 -265 l 340 -190 b 382 -215 349 -207 365 -215 b 429 -167 407 -215 429 -197 b 382 -121 429 -139 407 -121 b 340 -144 364 -121 349 -131 l 278 -103 l 304 -15 b 56 197 167 0 81 86 l 158 225 b 358 81 181 129 261 81 b 536 196 472 81 536 131 b 419 304 536 251 499 289 l 301 326 b 106 524 196 346 106 397 b 364 726 106 636 200 726 b 640 525 506 726 615 651 l 540 497 b 364 629 529 578 458 629 b 210 524 263 629 210 582 b 328 422 210 468 250 438 l 447 399 b 643 196 558 376 643 315 b 381 -17 643 76 539 -8 l 343 -128 b 415 -71 358 -83 389 -71 b 504 -169 464 -71 504 -114 b 382 -285 504 -235 456 -285 "},"ŝ":{"ha":733,"x_min":0,"x_max":0,"o":"m 353 -18 b 56 197 186 -18 83 74 l 158 225 b 358 81 181 129 261 81 b 536 196 472 81 536 131 b 419 304 536 251 499 289 l 301 326 b 106 524 196 346 106 397 b 364 726 106 636 200 726 b 640 525 506 726 615 651 l 540 497 b 364 629 529 578 458 629 b 210 524 263 629 210 582 b 328 422 210 468 250 438 l 447 399 b 643 196 558 376 643 315 b 353 -18 643 69 526 -18 m 279 1004 l 468 1004 l 563 799 l 460 799 l 374 982 l 289 799 l 185 799 "},"ș":{"ha":733,"x_min":0,"x_max":0,"o":"m 353 -18 b 56 197 186 -18 83 74 l 158 225 b 358 81 181 129 261 81 b 536 196 472 81 536 131 b 419 304 536 251 499 289 l 301 326 b 106 524 196 346 106 397 b 364 726 106 636 200 726 b 640 525 506 726 615 651 l 540 497 b 364 629 529 578 458 629 b 210 524 263 629 210 582 b 328 422 210 468 250 438 l 447 399 b 643 196 558 376 643 315 b 353 -18 643 69 526 -18 m 267 -267 b 331 -192 303 -257 331 -240 l 331 -187 l 283 -187 l 283 -62 l 408 -62 l 408 -187 b 286 -333 408 -268 357 -318 l 267 -267 "},"ß":{"ha":835,"x_min":0,"x_max":0,"o":"m 444 -18 b 331 0 408 -18 365 -11 l 331 103 b 440 85 364 93 406 85 b 667 290 569 85 667 168 b 444 497 667 413 569 497 l 386 497 l 386 596 l 399 596 b 571 753 519 596 571 667 b 406 890 571 815 517 890 b 221 689 290 890 221 810 l 221 0 l 111 0 l 111 689 b 408 990 111 864 225 992 b 683 769 590 989 683 876 b 472 596 683 661 604 596 b 779 290 657 592 779 453 b 444 -18 779 93 629 -18 "},"t":{"ha":551,"x_min":0,"x_max":0,"o":"m 335 0 b 164 176 238 0 164 60 l 164 611 l 42 611 l 42 708 l 167 708 l 167 869 l 275 869 l 275 708 l 496 708 l 496 611 l 275 611 l 275 176 b 351 97 275 119 308 97 l 486 97 l 486 0 l 335 0 "},"ŧ":{"ha":551,"x_min":0,"x_max":0,"o":"m 47 490 l 164 490 l 164 611 l 42 611 l 42 708 l 167 708 l 167 869 l 275 869 l 275 708 l 496 708 l 496 611 l 275 611 l 275 490 l 490 490 l 490 397 l 275 397 l 275 176 b 351 97 275 119 308 97 l 486 97 l 486 0 l 335 0 b 164 176 238 0 164 60 l 164 397 l 47 397 "},"ť":{"ha":551,"x_min":0,"x_max":0,"o":"m 335 0 b 164 176 238 0 164 60 l 164 611 l 42 611 l 42 708 l 167 708 l 167 869 l 275 869 l 275 708 l 496 708 l 496 611 l 275 611 l 275 176 b 351 97 275 119 308 97 l 486 97 l 486 0 l 335 0 m 381 1042 l 483 1042 l 450 790 l 358 790 "},"ţ":{"ha":551,"x_min":0,"x_max":0,"o":"m 375 -285 b 276 -229 332 -285 296 -265 l 333 -190 b 375 -215 342 -207 358 -215 b 422 -167 400 -215 422 -197 b 375 -121 422 -139 400 -121 b 333 -144 357 -121 342 -131 l 271 -103 l 303 3 b 164 176 222 14 164 72 l 164 611 l 42 611 l 42 708 l 167 708 l 167 869 l 275 869 l 275 708 l 496 708 l 496 611 l 275 611 l 275 176 b 351 97 275 119 308 97 l 486 97 l 486 0 l 379 0 l 336 -128 b 408 -71 351 -83 382 -71 b 497 -169 457 -71 497 -114 b 375 -285 497 -235 449 -285 "},"ț":{"ha":551,"x_min":0,"x_max":0,"o":"m 335 0 b 164 176 238 0 164 60 l 164 611 l 42 611 l 42 708 l 167 708 l 167 869 l 275 869 l 275 708 l 496 708 l 496 611 l 275 611 l 275 176 b 351 97 275 119 308 97 l 486 97 l 486 0 l 335 0 m 260 -267 b 324 -192 296 -257 324 -240 l 324 -187 l 276 -187 l 276 -62 l 401 -62 l 401 -187 b 279 -333 401 -268 350 -318 l 260 -267 "},"u":{"ha":803,"x_min":0,"x_max":0,"o":"m 706 0 l 594 0 l 594 218 b 350 -18 588 115 508 -18 b 97 249 182 -18 97 107 l 97 708 l 208 708 l 208 271 b 389 85 208 144 288 85 b 594 292 508 85 594 172 l 594 708 l 706 708 "},"ú":{"ha":803,"x_min":0,"x_max":0,"o":"m 706 0 l 594 0 l 594 218 b 350 -18 588 115 508 -18 b 97 249 182 -18 97 107 l 97 708 l 208 708 l 208 271 b 389 85 208 144 288 85 b 594 292 508 85 594 172 l 594 708 l 706 708 m 413 1004 l 536 1004 l 431 799 l 343 799 "},"ŭ":{"ha":803,"x_min":0,"x_max":0,"o":"m 706 0 l 594 0 l 594 218 b 350 -18 588 115 508 -18 b 97 249 182 -18 97 107 l 97 708 l 208 708 l 208 271 b 389 85 208 144 288 85 b 594 292 508 85 594 172 l 594 708 l 706 708 m 217 1000 l 308 1000 l 308 988 b 400 900 308 939 339 900 b 492 988 460 900 492 940 l 492 1000 l 583 1000 l 583 988 b 400 811 583 883 513 811 b 217 988 288 811 217 883 "},"û":{"ha":803,"x_min":0,"x_max":0,"o":"m 706 0 l 594 0 l 594 218 b 350 -18 588 115 508 -18 b 97 249 182 -18 97 107 l 97 708 l 208 708 l 208 271 b 389 85 208 144 288 85 b 594 292 508 85 594 172 l 594 708 l 706 708 m 304 1004 l 493 1004 l 588 799 l 485 799 l 399 982 l 314 799 l 210 799 "},"ü":{"ha":803,"x_min":0,"x_max":0,"o":"m 706 0 l 594 0 l 594 218 b 350 -18 588 115 508 -18 b 97 249 182 -18 97 107 l 97 708 l 208 708 l 208 271 b 389 85 208 144 288 85 b 594 292 508 85 594 172 l 594 708 l 706 708 m 218 990 l 343 990 l 343 854 l 218 854 m 449 990 l 574 990 l 574 854 l 449 854 "},"ù":{"ha":803,"x_min":0,"x_max":0,"o":"m 706 0 l 594 0 l 594 218 b 350 -18 588 115 508 -18 b 97 249 182 -18 97 107 l 97 708 l 208 708 l 208 271 b 389 85 208 144 288 85 b 594 292 508 85 594 172 l 594 708 l 706 708 m 392 1004 l 461 799 l 374 799 l 268 1004 "},"ű":{"ha":803,"x_min":0,"x_max":0,"o":"m 706 0 l 594 0 l 594 218 b 350 -18 588 115 508 -18 b 97 249 182 -18 97 107 l 97 708 l 208 708 l 208 271 b 389 85 208 144 288 85 b 594 292 508 85 594 172 l 594 708 l 706 708 m 322 1018 l 444 1018 l 328 799 l 239 799 m 524 1018 l 646 1018 l 529 799 l 440 799 "},"ū":{"ha":803,"x_min":0,"x_max":0,"o":"m 706 0 l 594 0 l 594 218 b 350 -18 588 115 508 -18 b 97 249 182 -18 97 107 l 97 708 l 208 708 l 208 271 b 389 85 208 144 288 85 b 594 292 508 85 594 172 l 594 708 l 706 708 m 232 947 l 568 947 l 568 847 l 232 847 "},"ų":{"ha":803,"x_min":0,"x_max":0,"o":"m 706 0 l 614 -114 b 597 -153 603 -126 597 -140 b 644 -199 597 -179 617 -199 b 683 -190 660 -199 671 -196 l 706 -267 b 624 -285 686 -278 654 -285 b 499 -168 558 -285 499 -243 b 535 -75 499 -131 510 -107 l 594 0 l 594 218 b 350 -18 588 115 508 -18 b 97 249 182 -18 97 107 l 97 708 l 208 708 l 208 271 b 389 85 208 144 288 85 b 594 292 508 85 594 172 l 594 708 l 706 708 "},"ů":{"ha":803,"x_min":0,"x_max":0,"o":"m 706 0 l 594 0 l 594 218 b 350 -18 588 115 508 -18 b 97 249 182 -18 97 107 l 97 708 l 208 708 l 208 271 b 389 85 208 144 288 85 b 594 292 508 85 594 172 l 594 708 l 706 708 m 258 922 b 399 1060 258 1001 318 1060 b 542 924 483 1060 542 1001 b 400 785 542 844 482 785 b 258 922 318 785 258 844 m 338 922 b 400 858 338 888 363 858 b 463 924 438 858 463 888 b 399 986 463 957 438 986 b 338 922 363 986 338 957 "},"ũ":{"ha":803,"x_min":0,"x_max":0,"o":"m 706 0 l 594 0 l 594 218 b 350 -18 588 115 508 -18 b 97 249 182 -18 97 107 l 97 708 l 208 708 l 208 271 b 389 85 208 144 288 85 b 594 292 508 85 594 172 l 594 708 l 706 708 m 183 847 b 304 974 186 922 233 974 b 392 944 339 974 368 958 l 426 924 b 475 904 443 914 460 904 b 526 965 506 904 526 926 l 526 974 l 606 939 b 485 813 603 864 556 813 b 399 842 450 813 425 825 l 365 863 b 314 882 350 872 335 882 b 263 818 283 882 263 857 l 263 810 l 183 847 "},"v":{"ha":778,"x_min":0,"x_max":0,"o":"m 35 708 l 153 708 l 392 22 l 624 708 l 743 708 l 490 0 l 289 0 "},"w":{"ha":1150,"x_min":0,"x_max":0,"o":"m 35 708 l 153 708 l 314 22 l 471 708 l 678 708 l 836 22 l 1000 708 l 1115 708 l 933 0 l 732 0 l 576 686 l 417 0 l 215 0 "},"ẃ":{"ha":1150,"x_min":0,"x_max":0,"o":"m 35 708 l 153 708 l 314 22 l 471 708 l 678 708 l 836 22 l 1000 708 l 1115 708 l 933 0 l 732 0 l 576 686 l 417 0 l 215 0 m 592 1004 l 715 1004 l 610 799 l 522 799 "},"ŵ":{"ha":1150,"x_min":0,"x_max":0,"o":"m 35 708 l 153 708 l 314 22 l 471 708 l 678 708 l 836 22 l 1000 708 l 1115 708 l 933 0 l 732 0 l 576 686 l 417 0 l 215 0 m 483 1004 l 672 1004 l 767 799 l 664 799 l 578 982 l 493 799 l 389 799 "},"ẅ":{"ha":1150,"x_min":0,"x_max":0,"o":"m 35 708 l 153 708 l 314 22 l 471 708 l 678 708 l 836 22 l 1000 708 l 1115 708 l 933 0 l 732 0 l 576 686 l 417 0 l 215 0 m 397 990 l 522 990 l 522 854 l 397 854 m 628 990 l 753 990 l 753 854 l 628 854 "},"ẁ":{"ha":1150,"x_min":0,"x_max":0,"o":"m 35 708 l 153 708 l 314 22 l 471 708 l 678 708 l 836 22 l 1000 708 l 1115 708 l 933 0 l 732 0 l 576 686 l 417 0 l 215 0 m 571 1004 l 640 799 l 553 799 l 447 1004 "},"x":{"ha":697,"x_min":0,"x_max":0,"o":"m 242 367 l 43 708 l 164 708 l 350 378 l 533 708 l 654 708 l 457 361 l 663 0 l 540 0 l 350 354 l 156 0 l 35 0 "},"y":{"ha":807,"x_min":0,"x_max":0,"o":"m 35 708 l 157 708 l 396 22 l 647 708 l 772 708 l 390 -292 l 272 -292 l 388 0 l 290 0 "},"ý":{"ha":807,"x_min":0,"x_max":0,"o":"m 35 708 l 157 708 l 396 22 l 647 708 l 772 708 l 390 -292 l 272 -292 l 388 0 l 290 0 m 419 1004 l 543 1004 l 438 799 l 350 799 "},"ŷ":{"ha":807,"x_min":0,"x_max":0,"o":"m 35 708 l 157 708 l 396 22 l 647 708 l 772 708 l 390 -292 l 272 -292 l 388 0 l 290 0 m 311 1004 l 500 1004 l 594 799 l 492 799 l 406 982 l 321 799 l 217 799 "},"ÿ":{"ha":807,"x_min":0,"x_max":0,"o":"m 35 708 l 157 708 l 396 22 l 647 708 l 772 708 l 390 -292 l 272 -292 l 388 0 l 290 0 m 225 990 l 350 990 l 350 854 l 225 854 m 456 990 l 581 990 l 581 854 l 456 854 "},"ỳ":{"ha":807,"x_min":0,"x_max":0,"o":"m 35 708 l 157 708 l 396 22 l 647 708 l 772 708 l 390 -292 l 272 -292 l 388 0 l 290 0 m 399 1004 l 468 799 l 381 799 l 275 1004 "},"z":{"ha":731,"x_min":0,"x_max":0,"o":"m 69 210 l 632 608 l 82 608 l 82 708 l 654 708 l 654 496 l 92 100 l 661 100 l 661 0 l 69 0 "},"ź":{"ha":731,"x_min":0,"x_max":0,"o":"m 69 210 l 632 608 l 82 608 l 82 708 l 654 708 l 654 496 l 92 100 l 661 100 l 661 0 l 69 0 m 378 1004 l 501 1004 l 396 799 l 308 799 "},"ž":{"ha":731,"x_min":0,"x_max":0,"o":"m 69 210 l 632 608 l 82 608 l 82 708 l 654 708 l 654 496 l 92 100 l 661 100 l 661 0 l 69 0 m 279 1006 l 365 822 l 450 1006 l 554 1006 l 460 800 l 271 800 l 176 1006 "},"ż":{"ha":731,"x_min":0,"x_max":0,"o":"m 69 210 l 632 608 l 82 608 l 82 708 l 654 708 l 654 496 l 92 100 l 661 100 l 661 0 l 69 0 m 310 990 l 426 990 l 426 847 l 310 847 "},"ª":{"ha":642,"x_min":0,"x_max":0,"o":"m 279 418 b 90 590 176 418 90 482 b 276 758 90 690 168 747 l 460 776 l 460 783 b 319 908 460 851 413 908 b 188 810 238 908 199 860 l 107 833 b 319 990 129 928 207 990 b 551 783 469 990 551 892 l 551 432 l 460 432 l 460 610 b 279 418 460 507 406 418 m 182 590 b 297 497 182 524 240 497 b 460 669 422 497 460 588 l 460 699 l 286 681 b 182 590 222 674 182 643 "},"º":{"ha":750,"x_min":0,"x_max":0,"o":"m 375 417 b 90 701 210 417 90 538 b 376 990 90 868 211 990 b 660 703 540 990 660 868 b 375 417 660 539 538 417 m 186 701 b 375 500 186 583 263 500 b 564 703 486 500 564 585 b 375 904 564 821 486 904 b 186 701 263 904 186 819 "},"⁄":{"ha":642,"x_min":0,"x_max":0,"o":"m 508 1044 l 628 1044 l 133 -71 l 14 -71 "},"½":{"ha":1181,"x_min":0,"x_max":0,"o":"m 782 1028 l 882 1028 l 311 -57 l 211 -57 m 69 860 b 228 963 169 860 228 914 l 228 972 l 317 972 l 317 422 l 228 422 l 228 926 b 69 775 228 803 138 775 m 744 429 b 913 561 758 497 817 561 b 1089 399 1029 561 1089 474 b 993 235 1089 336 1061 282 l 769 81 l 1097 81 l 1097 0 l 747 0 l 747 158 l 938 296 b 999 399 985 331 999 360 b 913 479 999 440 964 479 b 818 397 854 479 826 438 l 744 429 "},"¼":{"ha":1125,"x_min":0,"x_max":0,"o":"m 782 1028 l 882 1028 l 311 -57 l 211 -57 m 69 860 b 228 963 169 860 228 914 l 228 972 l 317 972 l 317 422 l 228 422 l 228 926 b 69 775 228 803 138 775 m 651 289 l 818 550 l 917 550 l 674 188 l 907 188 l 907 324 l 996 324 l 996 188 l 1069 188 l 1069 108 l 996 108 l 996 0 l 907 0 l 907 108 l 651 108 "},"¾":{"ha":1181,"x_min":0,"x_max":0,"o":"m 838 1028 l 938 1028 l 367 -57 l 267 -57 m 156 568 b 256 499 163 538 200 499 b 361 592 318 499 361 531 b 260 682 361 647 318 682 l 218 682 l 218 751 l 253 751 b 338 829 310 751 338 790 b 251 908 338 871 303 908 b 157 826 193 908 165 867 l 83 858 b 251 990 93 926 158 990 b 428 847 368 990 428 915 b 303 751 428 797 393 751 b 453 592 400 742 453 667 b 256 418 453 493 374 418 b 83 532 169 418 103 472 m 707 289 l 874 550 l 972 550 l 729 188 l 963 188 l 963 324 l 1051 324 l 1051 188 l 1125 188 l 1125 108 l 1051 108 l 1051 0 l 963 0 l 963 108 l 707 108 "},"¹":{"ha":442,"x_min":0,"x_max":0,"o":"m 228 926 b 69 775 228 803 138 775 l 69 860 b 228 963 169 860 228 914 l 228 972 l 317 972 l 317 422 l 228 422 l 228 926 "},"²":{"ha":519,"x_min":0,"x_max":0,"o":"m 86 581 l 276 718 b 338 821 324 753 338 782 b 251 901 338 863 303 901 b 157 819 193 901 165 860 l 83 851 b 251 983 97 919 156 983 b 428 821 368 983 428 896 b 332 657 428 758 400 704 l 108 503 l 436 503 l 436 422 l 86 422 "},"³":{"ha":536,"x_min":0,"x_max":0,"o":"m 256 411 b 83 525 169 411 103 465 l 156 561 b 256 492 163 531 200 492 b 361 585 318 492 361 524 b 260 675 361 640 318 675 l 218 675 l 218 744 l 253 744 b 338 822 310 744 338 783 b 251 901 338 864 303 901 b 157 819 193 901 165 860 l 83 851 b 251 983 93 919 158 983 b 428 840 368 983 428 908 b 303 744 428 790 393 744 b 453 585 400 735 453 660 b 256 411 453 486 374 411 "},".":{"ha":332,"x_min":0,"x_max":0,"o":"m 90 171 l 242 171 l 242 0 l 90 0 "},",":{"ha":335,"x_min":0,"x_max":0,"o":"m 69 -142 b 158 -6 131 -124 158 -78 l 158 0 l 93 0 l 93 171 l 244 171 l 244 0 b 93 -214 244 -99 201 -183 l 69 -142 "},":":{"ha":332,"x_min":0,"x_max":0,"o":"m 90 171 l 242 171 l 242 0 l 90 0 m 90 708 l 242 708 l 242 538 l 90 538 "},";":{"ha":335,"x_min":0,"x_max":0,"o":"m 69 -142 b 158 -6 131 -124 158 -78 l 158 0 l 93 0 l 93 171 l 244 171 l 244 0 b 93 -214 244 -99 201 -183 l 69 -142 m 90 708 l 242 708 l 242 538 l 90 538 "},"…":{"ha":1026,"x_min":0,"x_max":0,"o":"m 90 171 l 242 171 l 242 0 l 90 0 m 438 171 l 589 171 l 589 0 l 438 0 m 785 171 l 936 171 l 936 0 l 785 0 "},"!":{"ha":429,"x_min":0,"x_max":0,"o":"m 153 589 l 153 972 l 268 972 l 268 589 l 244 285 l 176 285 m 139 171 l 290 171 l 290 0 l 139 0 "},"¡":{"ha":429,"x_min":0,"x_max":0,"o":"m 244 424 l 268 119 l 268 -264 l 153 -264 l 153 119 l 176 424 m 139 708 l 290 708 l 290 538 l 139 538 "},"?":{"ha":765,"x_min":0,"x_max":0,"o":"m 314 342 b 399 513 314 428 360 479 l 476 579 b 557 735 529 624 557 664 b 381 893 557 822 490 893 b 200 718 289 893 200 836 b 204 669 200 696 201 686 l 101 689 b 97 729 99 703 97 715 b 381 990 99 888 226 990 b 668 735 557 990 668 875 b 544 507 668 619 601 554 l 472 447 b 419 333 443 424 419 396 l 419 258 l 314 258 l 314 342 m 292 171 l 443 171 l 443 0 l 292 0 "},"¿":{"ha":753,"x_min":0,"x_max":0,"o":"m 439 367 b 354 196 439 281 393 229 l 276 129 b 196 -26 224 85 196 44 b 372 -185 196 -114 263 -185 b 553 -10 464 -185 553 -128 b 549 39 553 13 551 22 l 651 19 b 656 -21 654 6 656 -7 b 372 -282 654 -179 526 -282 b 85 -26 196 -282 85 -167 b 208 201 85 89 151 154 l 281 261 b 333 375 310 285 333 313 l 333 450 l 439 450 l 439 367 m 310 708 l 461 708 l 461 538 l 310 538 "},"·":{"ha":374,"x_min":0,"x_max":0,"o":"m 111 508 l 263 508 l 263 338 l 111 338 "},"•":{"ha":644,"x_min":0,"x_max":0,"o":"m 322 192 b 83 431 185 192 83 299 b 322 669 83 563 185 669 b 561 431 460 669 561 563 b 322 192 561 299 460 192 "},"*":{"ha":561,"x_min":0,"x_max":0,"o":"m 106 564 l 211 714 l 42 776 l 71 857 l 238 796 l 238 972 l 324 972 l 324 796 l 490 857 l 519 776 l 347 713 l 453 564 l 383 515 l 279 663 l 175 515 "},"#":{"ha":751,"x_min":0,"x_max":0,"o":"m 394 294 l 285 294 l 247 97 l 149 97 l 186 294 l 83 294 l 83 385 l 203 385 l 242 586 l 83 586 l 83 676 l 258 676 l 296 875 l 394 875 l 357 676 l 467 676 l 504 875 l 603 875 l 565 676 l 668 676 l 668 586 l 549 586 l 510 385 l 668 385 l 668 294 l 493 294 l 456 97 l 357 97 m 411 385 l 450 586 l 340 586 l 301 385 "},"/":{"ha":675,"x_min":0,"x_max":0,"o":"m 481 1042 l 599 1042 l 194 -150 l 76 -150 "},"\\":{"ha":675,"x_min":0,"x_max":0,"o":"m 194 1042 l 599 -150 l 481 -150 l 76 1042 "},"-":{"ha":576,"x_min":0,"x_max":0,"o":"m 97 456 l 479 456 l 479 353 l 97 353 "},"–":{"ha":914,"x_min":0,"x_max":0,"o":"m 97 460 l 817 460 l 817 357 l 97 357 "},"—":{"ha":1282,"x_min":0,"x_max":0,"o":"m 97 460 l 1185 460 l 1185 357 l 97 357 "},"_":{"ha":486,"x_min":0,"x_max":0,"o":"m 7 -40 l 479 -40 l 479 -137 l 7 -137 "},"(":{"ha":629,"x_min":0,"x_max":0,"o":"m 454 -226 b 63 417 239 -122 63 107 b 454 1060 63 726 239 956 l 504 967 b 178 417 318 869 178 681 b 504 -133 178 153 318 -36 l 454 -226 "},")":{"ha":629,"x_min":0,"x_max":0,"o":"m 125 -133 b 451 417 311 -36 451 153 b 125 967 451 681 311 869 l 175 1060 b 567 417 390 956 567 726 b 175 -226 567 107 390 -122 l 125 -133 "},"{":{"ha":694,"x_min":0,"x_max":0,"o":"m 467 -226 b 233 -6 351 -226 233 -165 l 233 310 b 140 401 233 357 222 401 l 132 401 l 132 432 l 140 432 b 233 524 222 432 233 476 l 233 839 b 467 1060 233 999 351 1060 l 528 1060 l 528 963 l 465 963 b 343 838 406 963 343 929 l 343 583 b 154 417 343 493 306 417 b 343 257 306 417 343 347 l 343 -4 b 465 -129 343 -96 406 -129 l 528 -129 l 528 -226 l 467 -226 "},"}":{"ha":694,"x_min":0,"x_max":0,"o":"m 228 1060 b 461 839 343 1060 461 999 l 461 524 b 554 432 461 476 472 432 l 563 432 l 563 401 l 554 401 b 461 310 472 401 461 357 l 461 -6 b 228 -226 461 -165 343 -226 l 167 -226 l 167 -129 l 229 -129 b 351 -4 289 -129 351 -96 l 351 250 b 540 417 351 340 389 417 b 351 576 389 417 351 486 l 351 838 b 229 963 351 929 289 963 l 167 963 l 167 1060 l 228 1060 "},"[":{"ha":593,"x_min":0,"x_max":0,"o":"m 132 1060 l 426 1060 l 426 964 l 242 964 l 242 -131 l 426 -131 l 426 -226 l 132 -226 "},"]":{"ha":593,"x_min":0,"x_max":0,"o":"m 167 -226 l 167 -131 l 351 -131 l 351 964 l 167 964 l 167 1060 l 461 1060 l 461 -226 "},"‚":{"ha":332,"x_min":0,"x_max":0,"o":"m 69 -142 b 158 -6 131 -124 158 -78 l 158 0 l 93 0 l 93 171 l 244 171 l 244 0 b 93 -214 244 -99 201 -183 l 69 -142 "},"„":{"ha":571,"x_min":0,"x_max":0,"o":"m 317 -142 b 406 -6 378 -124 406 -78 l 406 0 l 340 0 l 340 171 l 492 171 l 492 0 b 340 -214 492 -99 449 -183 l 317 -142 m 81 -142 b 169 -6 142 -124 169 -78 l 169 0 l 104 0 l 104 171 l 256 171 l 256 0 b 104 -214 256 -99 213 -183 l 81 -142 "},"“":{"ha":564,"x_min":0,"x_max":0,"o":"m 251 904 b 163 768 190 886 163 840 l 163 763 l 228 763 l 228 592 l 76 592 l 76 763 b 228 976 76 861 119 946 l 251 904 m 313 763 b 464 976 313 861 356 946 l 488 904 b 399 768 426 886 399 840 l 399 763 l 464 763 l 464 592 l 313 592 "},"”":{"ha":564,"x_min":0,"x_max":0,"o":"m 324 660 b 413 796 385 678 413 724 l 413 801 l 347 801 l 347 972 l 499 972 l 499 801 b 347 588 499 703 456 618 l 324 660 m 88 660 b 176 796 149 678 176 724 l 176 801 l 111 801 l 111 972 l 263 972 l 263 801 b 111 588 263 703 219 618 l 88 660 "},"‘":{"ha":328,"x_min":0,"x_max":0,"o":"m 251 904 b 163 768 190 886 163 840 l 163 763 l 228 763 l 228 592 l 76 592 l 76 763 b 228 976 76 861 119 946 l 251 904 "},"’":{"ha":328,"x_min":0,"x_max":0,"o":"m 76 660 b 165 796 138 678 165 724 l 165 801 l 100 801 l 100 972 l 251 972 l 251 801 b 100 588 251 703 208 618 l 76 660 "},"«":{"ha":710,"x_min":0,"x_max":0,"o":"m 354 493 l 619 665 l 619 542 l 376 394 l 619 249 l 619 126 l 354 297 m 90 493 l 356 665 l 356 542 l 113 394 l 356 249 l 356 126 l 90 297 "},"»":{"ha":710,"x_min":0,"x_max":0,"o":"m 354 126 l 354 249 l 597 394 l 354 542 l 354 665 l 619 493 l 619 297 m 90 249 l 333 394 l 90 542 l 90 665 l 356 493 l 356 297 l 90 126 "},"‹":{"ha":446,"x_min":0,"x_max":0,"o":"m 90 493 l 356 665 l 356 542 l 113 394 l 356 249 l 356 126 l 90 297 "},"›":{"ha":446,"x_min":0,"x_max":0,"o":"m 90 126 l 90 249 l 333 394 l 90 542 l 90 665 l 356 493 l 356 297 "},"\"":{"ha":433,"x_min":0,"x_max":0,"o":"m 253 972 l 364 972 l 356 697 l 260 697 m 181 972 l 172 697 l 78 697 l 69 972 "},"'":{"ha":250,"x_min":0,"x_max":0,"o":"m 69 972 l 181 972 l 172 697 l 78 697 "},"@":{"ha":1247,"x_min":0,"x_max":0,"o":"m 642 -187 b 69 360 319 -187 69 19 b 632 925 69 679 288 925 b 1178 410 939 925 1178 708 b 960 86 1178 229 1100 86 b 786 261 860 86 786 139 l 786 294 b 592 86 786 160 700 86 b 344 360 456 86 344 189 b 592 633 344 515 456 633 b 785 438 700 633 779 551 l 785 625 l 878 625 l 878 250 b 958 169 878 200 907 169 b 1088 408 1038 169 1088 272 b 632 836 1088 669 882 836 b 168 360 361 836 168 639 b 642 -97 168 92 349 -97 b 939 -35 757 -97 864 -72 l 974 -118 b 642 -187 911 -150 792 -187 m 446 360 b 617 172 446 254 518 172 b 789 360 732 172 788 261 b 617 546 789 456 732 546 b 446 360 515 546 446 469 "},"&":{"ha":897,"x_min":0,"x_max":0,"o":"m 404 -17 b 69 283 197 -17 69 124 b 361 578 69 432 171 564 b 139 767 233 578 140 653 b 399 990 138 885 239 990 b 674 768 563 990 654 889 l 574 728 b 399 890 560 819 503 890 b 238 739 299 890 238 821 b 400 588 238 676 281 588 l 414 588 l 414 485 l 400 485 b 183 283 269 485 183 397 b 404 86 183 168 268 86 b 638 342 543 86 638 182 l 638 365 l 500 365 l 500 463 l 869 463 l 869 365 l 742 365 l 742 342 b 404 -17 742 136 613 -17 "},"¶":{"ha":686,"x_min":0,"x_max":0,"o":"m 301 521 b 69 747 171 521 69 622 b 296 972 69 871 172 972 l 554 972 l 554 -62 l 458 -62 l 458 876 l 396 876 l 396 -62 l 301 -62 l 301 521 "},"§":{"ha":707,"x_min":0,"x_max":0,"o":"m 499 211 b 464 214 482 211 472 213 b 589 17 540 164 589 106 b 343 -203 589 -112 486 -203 b 100 -64 232 -203 136 -147 l 190 -1 b 343 -101 208 -47 260 -101 b 476 17 418 -101 476 -57 b 388 140 476 75 438 110 l 176 271 b 49 454 90 324 49 385 b 208 604 49 544 118 604 b 243 601 225 604 235 603 b 118 799 167 651 118 710 b 364 1018 118 928 221 1018 b 607 879 475 1018 571 963 l 517 817 b 364 917 499 863 447 917 b 231 799 289 917 231 872 b 319 675 231 740 269 706 l 531 544 b 658 361 617 492 658 431 b 499 211 658 271 589 211 m 153 475 b 231 360 153 425 181 390 l 443 228 b 449 225 444 226 447 225 b 554 340 514 238 554 278 b 476 456 554 390 526 425 l 264 588 b 258 590 263 589 260 590 b 153 475 193 578 153 538 "},"©":{"ha":1135,"x_min":0,"x_max":0,"o":"m 567 -19 b 69 485 278 -19 69 201 b 564 990 69 764 281 990 b 1065 485 856 990 1065 765 b 567 -19 1065 201 858 -19 m 158 485 b 567 64 158 243 326 64 b 976 485 810 64 976 242 b 564 907 976 725 810 907 b 158 485 326 907 158 725 m 304 485 b 568 751 304 635 417 751 b 786 618 665 751 749 701 l 710 575 b 568 665 693 622 636 665 b 399 485 461 665 399 585 b 568 301 399 378 469 301 b 718 396 643 301 694 335 l 794 364 b 568 215 768 272 668 215 b 304 485 413 215 304 332 "},"®":{"ha":711,"x_min":0,"x_max":0,"o":"m 356 465 b 69 747 190 465 69 589 b 353 1031 69 904 190 1031 b 642 749 522 1031 642 906 b 356 465 642 594 524 465 m 133 747 b 356 524 133 621 225 524 b 578 749 488 524 578 618 b 353 971 578 879 486 971 b 133 747 225 971 133 876 m 244 897 l 378 897 b 475 821 440 897 475 864 b 392 754 475 781 446 754 b 474 679 456 754 474 711 l 474 597 l 413 597 l 413 661 b 365 701 413 688 396 701 l 306 701 l 306 597 l 244 597 m 364 756 b 411 800 397 756 411 779 b 364 844 411 822 397 844 l 306 844 l 306 756 "},"™":{"ha":1214,"x_min":0,"x_max":0,"o":"m 240 894 l 97 894 l 97 972 l 467 972 l 467 894 l 324 894 l 324 472 l 240 472 m 547 972 l 704 972 l 832 494 l 961 972 l 1117 972 l 1117 472 l 1036 472 l 1036 950 l 908 472 l 756 472 l 628 950 l 628 472 l 547 472 "},"°":{"ha":574,"x_min":0,"x_max":0,"o":"m 286 588 b 83 789 165 588 83 679 b 286 990 83 899 165 990 b 489 789 407 990 489 899 b 286 588 489 679 407 588 m 171 789 b 286 669 171 722 217 669 b 401 789 356 669 401 722 b 286 908 401 856 356 908 b 171 789 217 908 171 856 "},"|":{"ha":444,"x_min":0,"x_max":0,"o":"m 167 1088 l 278 1088 l 278 -292 l 167 -292 "},"†":{"ha":571,"x_min":0,"x_max":0,"o":"m 229 717 l 83 717 l 83 814 l 229 814 l 229 972 l 339 972 l 339 814 l 488 814 l 488 717 l 339 717 l 339 417 l 229 417 "},"‡":{"ha":571,"x_min":0,"x_max":0,"o":"m 229 417 l 83 417 l 83 514 l 229 514 l 229 717 l 83 717 l 83 814 l 229 814 l 229 972 l 339 972 l 339 814 l 488 814 l 488 717 l 339 717 l 339 514 l 488 514 l 488 417 l 339 417 l 339 258 l 229 258 "},"¢":{"ha":767,"x_min":0,"x_max":0,"o":"m 351 100 b 56 443 174 121 56 261 b 351 786 56 625 176 765 l 351 904 l 451 904 l 451 785 b 700 596 563 769 661 704 l 603 550 b 399 686 583 622 501 686 b 168 443 268 686 168 588 b 399 200 168 293 274 200 b 617 350 494 200 582 243 l 711 308 b 451 100 661 178 564 115 l 451 0 l 351 0 "},"$":{"ha":888,"x_min":0,"x_max":0,"o":"m 393 -15 b 90 231 246 1 129 81 l 196 264 b 453 86 226 147 317 86 b 681 264 594 86 681 165 b 511 438 681 360 614 414 l 371 469 b 132 729 246 497 132 568 b 404 988 132 864 236 972 l 404 1092 l 504 1092 l 504 988 b 776 767 650 971 747 888 l 674 733 b 450 888 651 828 565 888 b 243 729 310 888 243 810 b 397 576 243 633 318 594 l 540 543 b 797 264 676 511 797 428 b 493 -17 797 124 685 -1 l 493 -118 l 393 -118 "},"€":{"ha":901,"x_min":0,"x_max":0,"o":"m 489 -18 b 161 290 325 -18 161 92 l 161 344 l 83 344 l 83 442 l 161 442 l 161 533 l 83 533 l 83 631 l 161 631 l 161 682 b 489 990 161 875 325 990 b 769 833 615 990 719 932 l 672 778 b 489 883 640 842 575 883 b 272 675 365 883 272 799 l 272 631 l 564 631 l 564 533 l 272 533 l 272 442 l 564 442 l 564 344 l 272 344 l 272 297 b 489 89 272 168 365 89 b 671 196 569 89 638 131 l 768 142 b 489 -18 715 43 610 -18 "},"£":{"ha":874,"x_min":0,"x_max":0,"o":"m 97 103 b 190 207 144 103 190 131 l 190 440 l 110 440 l 110 538 l 190 538 l 190 660 b 506 990 190 868 339 990 b 775 835 643 990 739 914 l 682 779 b 507 885 663 828 593 885 b 303 660 393 885 303 806 l 303 538 l 578 538 l 578 440 l 303 440 l 303 292 b 149 103 303 176 246 103 l 790 103 l 790 0 l 97 0 l 97 103 "},"¥":{"ha":925,"x_min":0,"x_max":0,"o":"m 203 476 l 306 476 l 42 972 l 168 972 l 426 476 l 500 476 l 751 972 l 883 972 l 618 476 l 728 476 l 728 383 l 519 383 l 519 274 l 728 274 l 728 181 l 519 181 l 519 0 l 406 0 l 406 181 l 203 181 l 203 274 l 406 274 l 406 383 l 203 383 "},"+":{"ha":611,"x_min":0,"x_max":0,"o":"m 256 386 l 7 386 l 7 479 l 256 479 l 256 733 l 356 733 l 356 479 l 604 479 l 604 386 l 356 386 l 356 131 l 256 131 "},"−":{"ha":611,"x_min":0,"x_max":0,"o":"m 7 479 l 604 479 l 604 386 l 7 386 "},"×":{"ha":503,"x_min":0,"x_max":0,"o":"m 7 254 l 186 433 l 7 611 l 74 676 l 251 499 l 429 676 l 496 611 l 318 433 l 496 254 l 429 189 l 251 367 l 74 189 "},"÷":{"ha":611,"x_min":0,"x_max":0,"o":"m 7 479 l 604 479 l 604 386 l 7 386 m 235 218 b 306 289 235 257 267 289 b 375 218 344 289 375 257 b 306 149 375 181 344 149 b 235 218 267 149 235 181 m 235 646 b 306 717 235 685 267 717 b 375 646 344 717 375 685 b 306 576 375 607 344 576 b 235 646 267 576 235 607 "},"=":{"ha":611,"x_min":0,"x_max":0,"o":"m 7 592 l 604 592 l 604 499 l 7 499 m 7 361 l 604 361 l 604 269 l 7 269 "},">":{"ha":610,"x_min":0,"x_max":0,"o":"m 7 225 l 581 433 l 7 640 l 7 747 l 603 522 l 603 343 l 7 118 "},"<":{"ha":610,"x_min":0,"x_max":0,"o":"m 7 343 l 7 522 l 603 747 l 603 640 l 29 433 l 603 225 l 603 118 "},"~":{"ha":697,"x_min":0,"x_max":0,"o":"m 56 364 b 231 521 68 456 131 521 b 465 425 339 521 392 425 b 553 536 525 425 553 471 l 642 483 b 469 326 628 399 569 326 b 231 422 354 326 314 422 b 146 307 179 422 146 376 l 56 364 "},"^":{"ha":756,"x_min":0,"x_max":0,"o":"m 292 972 l 464 972 l 665 456 l 568 456 l 378 950 l 189 456 l 90 456 "},"%":{"ha":1163,"x_min":0,"x_max":0,"o":"m 761 972 l 864 972 l 401 0 l 299 0 m 69 794 b 271 990 69 904 154 990 b 472 794 388 990 472 904 l 472 644 b 271 449 472 533 388 449 b 69 644 154 449 69 533 m 164 646 b 271 540 164 579 213 540 b 378 646 329 540 378 579 l 378 793 b 271 897 378 858 329 897 b 164 793 213 897 164 858 l 164 646 m 690 328 b 892 524 690 438 775 524 b 1093 328 1008 524 1093 438 l 1093 178 b 892 -18 1093 67 1008 -18 b 690 178 775 -18 690 67 m 785 179 b 892 74 785 113 833 74 b 999 179 950 74 999 113 l 999 326 b 892 431 999 392 950 431 b 785 326 833 431 785 392 l 785 179 "},"‰":{"ha":1393,"x_min":0,"x_max":0,"o":"m 761 972 l 864 972 l 401 0 l 299 0 m 69 794 b 271 990 69 904 154 990 b 472 794 388 990 472 904 l 472 644 b 271 449 472 533 388 449 b 69 644 154 449 69 533 m 164 646 b 271 540 164 579 213 540 b 378 646 329 540 378 579 l 378 793 b 271 897 378 858 329 897 b 164 793 213 897 164 858 l 164 646 m 690 328 b 865 524 690 438 758 524 b 1007 367 963 524 1007 451 b 1149 524 1007 451 1051 524 b 1324 328 1256 524 1324 438 l 1324 178 b 1149 -18 1324 68 1256 -18 b 1007 139 1051 -18 1007 54 b 865 -18 1007 54 963 -18 b 690 178 758 -18 690 68 m 785 179 b 892 75 785 114 833 75 b 999 179 950 75 999 114 l 999 326 b 892 431 999 392 950 431 b 785 326 833 431 785 392 l 785 179 m 1015 179 b 1122 75 1015 114 1064 75 b 1229 179 1181 75 1229 114 l 1229 326 b 1122 431 1229 392 1181 431 b 1015 326 1064 431 1015 392 l 1015 179 "},"↑":{"ha":1042,"x_min":0,"x_max":0,"o":"m 465 997 b 69 588 465 863 340 588 l 69 707 b 465 1089 385 707 465 958 l 576 1089 b 972 707 576 958 657 707 l 972 588 b 576 997 701 588 576 863 l 576 0 l 465 0 l 465 997 "},"↗":{"ha":997,"x_min":0,"x_max":0,"o":"m 775 985 b 204 975 679 889 396 783 l 289 1060 b 839 1049 513 836 747 957 l 918 971 b 928 421 825 878 704 643 l 843 336 b 853 906 651 528 758 811 l 147 201 l 69 279 l 775 985 "},"→":{"ha":1228,"x_min":0,"x_max":0,"o":"m 1067 538 b 657 933 932 538 657 663 l 776 933 b 1158 538 776 618 1028 538 l 1158 426 b 776 31 1028 426 776 346 l 657 31 b 1067 426 657 301 932 426 l 69 426 l 69 538 l 1067 538 "},"↘":{"ha":997,"x_min":0,"x_max":0,"o":"m 69 692 l 147 769 l 853 65 b 843 635 758 160 651 443 l 928 550 b 918 0 704 328 825 93 l 839 -78 b 289 -89 747 14 513 135 l 204 -4 b 775 -14 396 188 679 82 "},"↓":{"ha":1042,"x_min":0,"x_max":0,"o":"m 465 992 l 576 992 l 576 -6 b 972 404 576 129 701 404 l 972 285 b 576 -97 657 285 576 33 l 465 -97 b 69 285 465 33 385 285 l 69 404 b 465 -6 340 404 465 129 "},"↙":{"ha":997,"x_min":0,"x_max":0,"o":"m 222 -14 b 793 -4 318 82 601 188 l 708 -89 b 158 -78 485 135 250 14 l 79 0 b 69 550 172 93 293 328 l 154 635 b 144 65 346 443 239 160 l 850 769 l 928 692 l 222 -14 "},"←":{"ha":1228,"x_min":0,"x_max":0,"o":"m 1158 538 l 1158 426 l 161 426 b 571 31 296 426 571 301 l 451 31 b 69 426 451 346 200 426 l 69 538 b 451 933 200 538 451 618 l 571 933 b 161 538 571 663 296 538 "},"↖":{"ha":997,"x_min":0,"x_max":0,"o":"m 928 279 l 850 201 l 144 906 b 154 336 239 811 346 528 l 69 421 b 79 971 293 643 172 878 l 158 1049 b 708 1060 250 957 485 836 l 793 975 b 222 985 601 783 318 889 "},"̦":{"ha":0,"x_min":0,"x_max":0,"o":"m 69 -267 b 133 -192 106 -257 133 -240 l 133 -187 l 86 -187 l 86 -62 l 211 -62 l 211 -187 b 89 -333 211 -268 160 -318 l 69 -267 "},"¨":{"ha":494,"x_min":0,"x_max":0,"o":"m 300 1004 l 425 1004 l 425 868 l 300 868 m 69 1004 l 194 1004 l 194 868 l 69 868 "},"˙":{"ha":256,"x_min":0,"x_max":0,"o":"m 69 1004 l 186 1004 l 186 861 l 69 861 "},"`":{"ha":332,"x_min":0,"x_max":0,"o":"m 175 813 l 69 1018 l 193 1018 l 263 813 "},"´":{"ha":332,"x_min":0,"x_max":0,"o":"m 139 1018 l 263 1018 l 157 813 l 69 813 "},"˝":{"ha":546,"x_min":0,"x_max":0,"o":"m 354 1032 l 476 1032 l 360 813 l 271 813 m 153 1032 l 275 1032 l 158 813 l 69 813 "},"ˆ":{"ha":517,"x_min":0,"x_max":0,"o":"m 353 1018 l 447 813 l 344 813 l 258 996 l 174 813 l 69 813 l 164 1018 "},"ˇ":{"ha":517,"x_min":0,"x_max":0,"o":"m 164 814 l 69 1019 l 172 1019 l 258 836 l 343 1019 l 447 1019 l 353 814 "},"˘":{"ha":506,"x_min":0,"x_max":0,"o":"m 253 825 b 69 1001 140 825 69 897 l 69 1014 l 161 1014 l 161 1001 b 253 914 161 953 192 914 b 344 1001 313 914 344 954 l 344 1014 l 436 1014 l 436 1001 b 253 825 436 897 365 825 "},"˚":{"ha":422,"x_min":0,"x_max":0,"o":"m 211 799 b 69 936 129 799 69 858 b 210 1074 69 1015 129 1074 b 353 938 294 1074 353 1015 b 211 799 353 858 293 799 m 149 936 b 211 872 149 901 174 872 b 274 938 249 872 274 901 b 210 1000 274 971 249 1000 b 149 936 174 1000 149 971 "},"˜":{"ha":561,"x_min":0,"x_max":0,"o":"m 371 826 b 285 856 336 826 311 839 l 251 876 b 200 896 236 886 221 896 b 149 832 169 896 149 871 l 149 824 l 69 861 b 190 988 72 936 119 988 b 278 958 225 988 254 972 l 313 938 b 361 918 329 928 346 918 b 413 979 392 918 413 940 l 413 988 l 492 953 b 371 826 489 878 442 826 "},"¯":{"ha":475,"x_min":0,"x_max":0,"o":"m 69 961 l 406 961 l 406 861 l 69 861 "},"¸":{"ha":365,"x_min":0,"x_max":0,"o":"m 174 -285 b 75 -229 131 -285 94 -265 l 132 -190 b 174 -215 140 -207 157 -215 b 221 -167 199 -215 221 -197 b 174 -121 221 -139 199 -121 b 132 -144 156 -121 140 -131 l 69 -103 l 110 28 l 188 28 l 135 -128 b 207 -71 150 -83 181 -71 b 296 -169 256 -71 296 -114 b 174 -285 296 -235 247 -285 "},"˛":{"ha":346,"x_min":0,"x_max":0,"o":"m 194 -285 b 69 -168 129 -285 69 -243 b 106 -75 69 -131 81 -107 l 165 0 l 276 0 l 185 -114 b 168 -153 174 -126 168 -140 b 215 -199 168 -179 188 -199 b 254 -190 231 -199 242 -196 l 276 -267 b 194 -285 257 -278 225 -285 "}}}
